<?xml version="1.0" encoding="UTF-8" standalone="no"?>
<!DOCTYPE svg PUBLIC "-//W3C//DTD SVG 1.1//EN"
 "http://www.w3.org/Graphics/SVG/1.1/DTD/svg11.dtd">
<!-- Generated by graphviz version 11.0.0 (0)
 -->
<!-- Pages: 1 -->
<svg width="968pt" height="692pt"
 viewBox="0.00 0.00 967.50 692.00" xmlns="http://www.w3.org/2000/svg" xmlns:xlink="http://www.w3.org/1999/xlink">
<g id="graph0" class="graph" transform="scale(1 1) rotate(0) translate(4 688)">
<polygon fill="white" stroke="none" points="-4,4 -4,-688 963.5,-688 963.5,4 -4,4"/>
<!-- 0x5030000007c0 -->
<g id="node1" class="node">
<title>0x5030000007c0</title>
<path fill="crimson" stroke="black" d="M322,-576.5C322,-576.5 582,-576.5 582,-576.5 588,-576.5 594,-582.5 594,-588.5 594,-588.5 594,-671.5 594,-671.5 594,-677.5 588,-683.5 582,-683.5 582,-683.5 322,-683.5 322,-683.5 316,-683.5 310,-677.5 310,-671.5 310,-671.5 310,-588.5 310,-588.5 310,-582.5 316,-576.5 322,-576.5"/>
<text text-anchor="middle" x="452" y="-662.4" font-family="Times,serif" font-size="18.00">Nodetype: Operation</text>
<polyline fill="none" stroke="black" points="310,-656.75 594,-656.75"/>
<text text-anchor="middle" x="452" y="-635.65" font-family="Times,serif" font-size="18.00">TypeOperation: +</text>
<polyline fill="none" stroke="black" points="310,-630 594,-630"/>
<text text-anchor="middle" x="452" y="-608.9" font-family="Times,serif" font-size="18.00">0x5030000007c0</text>
<polyline fill="none" stroke="black" points="310,-603.25 594,-603.25"/>
<text text-anchor="middle" x="381" y="-582.15" font-family="Times,serif" font-size="18.00">0x503000000790</text>
<polyline fill="none" stroke="black" points="452,-576.5 452,-603.25"/>
<text text-anchor="middle" x="523" y="-582.15" font-family="Times,serif" font-size="18.00">0x503000000520</text>
</g>
<!-- 0x503000000790 -->
<g id="node2" class="node">
<title>0x503000000790</title>
<path fill="crimson" stroke="black" d="M172.38,-432.5C172.38,-432.5 431.62,-432.5 431.62,-432.5 437.62,-432.5 443.62,-438.5 443.62,-444.5 443.62,-444.5 443.62,-527.5 443.62,-527.5 443.62,-533.5 437.62,-539.5 431.62,-539.5 431.62,-539.5 172.38,-539.5 172.38,-539.5 166.38,-539.5 160.38,-533.5 160.38,-527.5 160.38,-527.5 160.38,-444.5 160.38,-444.5 160.38,-438.5 166.38,-432.5 172.38,-432.5"/>
<text text-anchor="middle" x="302" y="-518.4" font-family="Times,serif" font-size="18.00">Nodetype: Operation</text>
<polyline fill="none" stroke="black" points="160.38,-512.75 443.62,-512.75"/>
<text text-anchor="middle" x="302" y="-491.65" font-family="Times,serif" font-size="18.00">TypeOperation: *</text>
<polyline fill="none" stroke="black" points="160.38,-486 443.62,-486"/>
<text text-anchor="middle" x="302" y="-464.9" font-family="Times,serif" font-size="18.00">0x503000000790</text>
<polyline fill="none" stroke="black" points="160.38,-459.25 443.62,-459.25"/>
<text text-anchor="middle" x="231.38" y="-438.15" font-family="Times,serif" font-size="18.00">0x503000000760</text>
<polyline fill="none" stroke="black" points="302.38,-432.5 302.38,-459.25"/>
<text text-anchor="middle" x="373" y="-438.15" font-family="Times,serif" font-size="18.00">0x5030000005e0</text>
</g>
<!-- 0x5030000007c0&#45;&gt;0x503000000790 -->
<g id="edge1" class="edge">
<title>0x5030000007c0&#45;&gt;0x503000000790</title>
<path fill="none" stroke="black" d="M396.15,-576.12C386.38,-566.88 376.16,-557.2 366.19,-547.77"/>
<polygon fill="black" stroke="black" points="368.67,-545.29 359,-540.96 363.86,-550.38 368.67,-545.29"/>
</g>
<!-- 0x503000000520 -->
<g id="node8" class="node">
<title>0x503000000520</title>
<path fill="crimson" stroke="black" d="M473.88,-432.5C473.88,-432.5 730.12,-432.5 730.12,-432.5 736.12,-432.5 742.12,-438.5 742.12,-444.5 742.12,-444.5 742.12,-527.5 742.12,-527.5 742.12,-533.5 736.12,-539.5 730.12,-539.5 730.12,-539.5 473.88,-539.5 473.88,-539.5 467.88,-539.5 461.88,-533.5 461.88,-527.5 461.88,-527.5 461.88,-444.5 461.88,-444.5 461.88,-438.5 467.88,-432.5 473.88,-432.5"/>
<text text-anchor="middle" x="602" y="-518.4" font-family="Times,serif" font-size="18.00">Nodetype: Operation</text>
<polyline fill="none" stroke="black" points="461.88,-512.75 742.12,-512.75"/>
<text text-anchor="middle" x="602" y="-491.65" font-family="Times,serif" font-size="18.00">TypeOperation: /</text>
<polyline fill="none" stroke="black" points="461.88,-486 742.12,-486"/>
<text text-anchor="middle" x="602" y="-464.9" font-family="Times,serif" font-size="18.00">0x503000000520</text>
<polyline fill="none" stroke="black" points="461.88,-459.25 742.12,-459.25"/>
<text text-anchor="middle" x="531.38" y="-438.15" font-family="Times,serif" font-size="18.00">0x5030000004f0</text>
<polyline fill="none" stroke="black" points="600.88,-432.5 600.88,-459.25"/>
<text text-anchor="middle" x="671.5" y="-438.15" font-family="Times,serif" font-size="18.00">0x5030000004c0</text>
</g>
<!-- 0x5030000007c0&#45;&gt;0x503000000520 -->
<g id="edge7" class="edge">
<title>0x5030000007c0&#45;&gt;0x503000000520</title>
<path fill="none" stroke="black" d="M507.85,-576.12C517.62,-566.88 527.84,-557.2 537.81,-547.77"/>
<polygon fill="black" stroke="black" points="540.14,-550.38 545,-540.96 535.33,-545.29 540.14,-550.38"/>
</g>
<!-- 0x503000000760 -->
<g id="node3" class="node">
<title>0x503000000760</title>
<path fill="orange" stroke="black" d="M72.25,-288.5C72.25,-288.5 237.75,-288.5 237.75,-288.5 243.75,-288.5 249.75,-294.5 249.75,-300.5 249.75,-300.5 249.75,-383.5 249.75,-383.5 249.75,-389.5 243.75,-395.5 237.75,-395.5 237.75,-395.5 72.25,-395.5 72.25,-395.5 66.25,-395.5 60.25,-389.5 60.25,-383.5 60.25,-383.5 60.25,-300.5 60.25,-300.5 60.25,-294.5 66.25,-288.5 72.25,-288.5"/>
<text text-anchor="middle" x="155" y="-374.4" font-family="Times,serif" font-size="18.00">Nodetype: Function</text>
<polyline fill="none" stroke="black" points="60.25,-368.75 249.75,-368.75"/>
<text text-anchor="middle" x="155" y="-347.65" font-family="Times,serif" font-size="18.00">TypeFunction: cos</text>
<polyline fill="none" stroke="black" points="60.25,-342 249.75,-342"/>
<text text-anchor="middle" x="155" y="-320.9" font-family="Times,serif" font-size="18.00">0x503000000760</text>
<polyline fill="none" stroke="black" points="60.25,-315.25 249.75,-315.25"/>
<text text-anchor="middle" x="131.25" y="-294.15" font-family="Times,serif" font-size="18.00">0x503000000730</text>
<polyline fill="none" stroke="black" points="202.25,-288.5 202.25,-315.25"/>
<text text-anchor="middle" x="226" y="-294.15" font-family="Times,serif" font-size="18.00">(nil)</text>
</g>
<!-- 0x503000000790&#45;&gt;0x503000000760 -->
<g id="edge2" class="edge">
<title>0x503000000790&#45;&gt;0x503000000760</title>
<path fill="none" stroke="black" d="M247.26,-432.12C237.7,-422.88 227.68,-413.2 217.91,-403.77"/>
<polygon fill="black" stroke="black" points="220.5,-401.4 210.87,-396.97 215.63,-406.44 220.5,-401.4"/>
</g>
<!-- 0x5030000005e0 -->
<g id="node7" class="node">
<title>0x5030000005e0</title>
<path fill="lightskyblue" stroke="black" d="M279.38,-288.5C279.38,-288.5 396.62,-288.5 396.62,-288.5 402.62,-288.5 408.62,-294.5 408.62,-300.5 408.62,-300.5 408.62,-383.5 408.62,-383.5 408.62,-389.5 402.62,-395.5 396.62,-395.5 396.62,-395.5 279.38,-395.5 279.38,-395.5 273.38,-395.5 267.38,-389.5 267.38,-383.5 267.38,-383.5 267.38,-300.5 267.38,-300.5 267.38,-294.5 273.38,-288.5 279.38,-288.5"/>
<text text-anchor="middle" x="338" y="-374.4" font-family="Times,serif" font-size="18.00">Nodetype: Num</text>
<polyline fill="none" stroke="black" points="267.38,-368.75 408.62,-368.75"/>
<text text-anchor="middle" x="338" y="-347.65" font-family="Times,serif" font-size="18.00">Num: 2.00</text>
<polyline fill="none" stroke="black" points="267.38,-342 408.62,-342"/>
<text text-anchor="middle" x="338" y="-320.9" font-family="Times,serif" font-size="18.00">0x5030000005e0</text>
<polyline fill="none" stroke="black" points="267.38,-315.25 408.62,-315.25"/>
<text text-anchor="middle" x="302.62" y="-294.15" font-family="Times,serif" font-size="18.00">(nil)</text>
<polyline fill="none" stroke="black" points="337.88,-288.5 337.88,-315.25"/>
<text text-anchor="middle" x="373.12" y="-294.15" font-family="Times,serif" font-size="18.00">(nil)</text>
</g>
<!-- 0x503000000790&#45;&gt;0x5030000005e0 -->
<g id="edge6" class="edge">
<title>0x503000000790&#45;&gt;0x5030000005e0</title>
<path fill="none" stroke="black" d="M315.41,-432.12C317.49,-423.9 319.66,-415.33 321.8,-406.89"/>
<polygon fill="black" stroke="black" points="325.15,-407.94 324.21,-397.39 318.36,-406.22 325.15,-407.94"/>
</g>
<!-- 0x503000000730 -->
<g id="node4" class="node">
<title>0x503000000730</title>
<path fill="crimson" stroke="black" d="M25,-144.5C25,-144.5 285,-144.5 285,-144.5 291,-144.5 297,-150.5 297,-156.5 297,-156.5 297,-239.5 297,-239.5 297,-245.5 291,-251.5 285,-251.5 285,-251.5 25,-251.5 25,-251.5 19,-251.5 13,-245.5 13,-239.5 13,-239.5 13,-156.5 13,-156.5 13,-150.5 19,-144.5 25,-144.5"/>
<text text-anchor="middle" x="155" y="-230.4" font-family="Times,serif" font-size="18.00">Nodetype: Operation</text>
<polyline fill="none" stroke="black" points="13,-224.75 297,-224.75"/>
<text text-anchor="middle" x="155" y="-203.65" font-family="Times,serif" font-size="18.00">TypeOperation: *</text>
<polyline fill="none" stroke="black" points="13,-198 297,-198"/>
<text text-anchor="middle" x="155" y="-176.9" font-family="Times,serif" font-size="18.00">0x503000000730</text>
<polyline fill="none" stroke="black" points="13,-171.25 297,-171.25"/>
<text text-anchor="middle" x="84" y="-150.15" font-family="Times,serif" font-size="18.00">0x503000000700</text>
<polyline fill="none" stroke="black" points="155,-144.5 155,-171.25"/>
<text text-anchor="middle" x="226" y="-150.15" font-family="Times,serif" font-size="18.00">0x5030000006d0</text>
</g>
<!-- 0x503000000760&#45;&gt;0x503000000730 -->
<g id="edge3" class="edge">
<title>0x503000000760&#45;&gt;0x503000000730</title>
<path fill="none" stroke="black" d="M155,-288.12C155,-279.99 155,-271.52 155,-263.18"/>
<polygon fill="black" stroke="black" points="158.5,-263.43 155,-253.43 151.5,-263.43 158.5,-263.43"/>
</g>
<!-- 0x503000000700 -->
<g id="node5" class="node">
<title>0x503000000700</title>
<path fill="lightskyblue" stroke="black" d="M12,-0.5C12,-0.5 130,-0.5 130,-0.5 136,-0.5 142,-6.5 142,-12.5 142,-12.5 142,-95.5 142,-95.5 142,-101.5 136,-107.5 130,-107.5 130,-107.5 12,-107.5 12,-107.5 6,-107.5 0,-101.5 0,-95.5 0,-95.5 0,-12.5 0,-12.5 0,-6.5 6,-0.5 12,-0.5"/>
<text text-anchor="middle" x="71" y="-86.4" font-family="Times,serif" font-size="18.00">Nodetype: Num</text>
<polyline fill="none" stroke="black" points="0,-80.75 142,-80.75"/>
<text text-anchor="middle" x="71" y="-59.65" font-family="Times,serif" font-size="18.00">Num: 2.00</text>
<polyline fill="none" stroke="black" points="0,-54 142,-54"/>
<text text-anchor="middle" x="71" y="-32.9" font-family="Times,serif" font-size="18.00">0x503000000700</text>
<polyline fill="none" stroke="black" points="0,-27.25 142,-27.25"/>
<text text-anchor="middle" x="35.25" y="-6.15" font-family="Times,serif" font-size="18.00">(nil)</text>
<polyline fill="none" stroke="black" points="70.5,-0.5 70.5,-27.25"/>
<text text-anchor="middle" x="106.25" y="-6.15" font-family="Times,serif" font-size="18.00">(nil)</text>
</g>
<!-- 0x503000000730&#45;&gt;0x503000000700 -->
<g id="edge4" class="edge">
<title>0x503000000730&#45;&gt;0x503000000700</title>
<path fill="none" stroke="black" d="M123.72,-144.12C118.64,-135.53 113.33,-126.56 108.12,-117.76"/>
<polygon fill="black" stroke="black" points="111.18,-116.05 103.08,-109.22 105.15,-119.61 111.18,-116.05"/>
</g>
<!-- 0x5030000006d0 -->
<g id="node6" class="node">
<title>0x5030000006d0</title>
<path fill="green" stroke="black" d="M172.5,-0.5C172.5,-0.5 305.5,-0.5 305.5,-0.5 311.5,-0.5 317.5,-6.5 317.5,-12.5 317.5,-12.5 317.5,-95.5 317.5,-95.5 317.5,-101.5 311.5,-107.5 305.5,-107.5 305.5,-107.5 172.5,-107.5 172.5,-107.5 166.5,-107.5 160.5,-101.5 160.5,-95.5 160.5,-95.5 160.5,-12.5 160.5,-12.5 160.5,-6.5 166.5,-0.5 172.5,-0.5"/>
<text text-anchor="middle" x="239" y="-86.4" font-family="Times,serif" font-size="18.00">Nodetype: Variable</text>
<polyline fill="none" stroke="black" points="160.5,-80.75 317.5,-80.75"/>
<text text-anchor="middle" x="239" y="-59.65" font-family="Times,serif" font-size="18.00">Var: x</text>
<polyline fill="none" stroke="black" points="160.5,-54 317.5,-54"/>
<text text-anchor="middle" x="239" y="-32.9" font-family="Times,serif" font-size="18.00">0x5030000006d0</text>
<polyline fill="none" stroke="black" points="160.5,-27.25 317.5,-27.25"/>
<text text-anchor="middle" x="199.75" y="-6.15" font-family="Times,serif" font-size="18.00">(nil)</text>
<polyline fill="none" stroke="black" points="239,-0.5 239,-27.25"/>
<text text-anchor="middle" x="278.25" y="-6.15" font-family="Times,serif" font-size="18.00">(nil)</text>
</g>
<!-- 0x503000000730&#45;&gt;0x5030000006d0 -->
<g id="edge5" class="edge">
<title>0x503000000730&#45;&gt;0x5030000006d0</title>
<path fill="none" stroke="black" d="M186.28,-144.12C191.36,-135.53 196.67,-126.56 201.88,-117.76"/>
<polygon fill="black" stroke="black" points="204.85,-119.61 206.92,-109.22 198.82,-116.05 204.85,-119.61"/>
</g>
<!-- 0x5030000004f0 -->
<g id="node9" class="node">
<title>0x5030000004f0</title>
<path fill="lightskyblue" stroke="black" d="M509.5,-288.5C509.5,-288.5 624.5,-288.5 624.5,-288.5 630.5,-288.5 636.5,-294.5 636.5,-300.5 636.5,-300.5 636.5,-383.5 636.5,-383.5 636.5,-389.5 630.5,-395.5 624.5,-395.5 624.5,-395.5 509.5,-395.5 509.5,-395.5 503.5,-395.5 497.5,-389.5 497.5,-383.5 497.5,-383.5 497.5,-300.5 497.5,-300.5 497.5,-294.5 503.5,-288.5 509.5,-288.5"/>
<text text-anchor="middle" x="567" y="-374.4" font-family="Times,serif" font-size="18.00">Nodetype: Num</text>
<polyline fill="none" stroke="black" points="497.5,-368.75 636.5,-368.75"/>
<text text-anchor="middle" x="567" y="-347.65" font-family="Times,serif" font-size="18.00">Num: 1.00</text>
<polyline fill="none" stroke="black" points="497.5,-342 636.5,-342"/>
<text text-anchor="middle" x="567" y="-320.9" font-family="Times,serif" font-size="18.00">0x5030000004f0</text>
<polyline fill="none" stroke="black" points="497.5,-315.25 636.5,-315.25"/>
<text text-anchor="middle" x="532.25" y="-294.15" font-family="Times,serif" font-size="18.00">(nil)</text>
<polyline fill="none" stroke="black" points="567,-288.5 567,-315.25"/>
<text text-anchor="middle" x="601.75" y="-294.15" font-family="Times,serif" font-size="18.00">(nil)</text>
</g>
<!-- 0x503000000520&#45;&gt;0x5030000004f0 -->
<g id="edge8" class="edge">
<title>0x503000000520&#45;&gt;0x5030000004f0</title>
<path fill="none" stroke="black" d="M588.97,-432.12C586.94,-423.9 584.83,-415.33 582.75,-406.89"/>
<polygon fill="black" stroke="black" points="586.2,-406.26 580.41,-397.39 579.4,-407.94 586.2,-406.26"/>
</g>
<!-- 0x5030000004c0 -->
<g id="node10" class="node">
<title>0x5030000004c0</title>
<path fill="crimson" stroke="black" d="M667,-288.5C667,-288.5 927,-288.5 927,-288.5 933,-288.5 939,-294.5 939,-300.5 939,-300.5 939,-383.5 939,-383.5 939,-389.5 933,-395.5 927,-395.5 927,-395.5 667,-395.5 667,-395.5 661,-395.5 655,-389.5 655,-383.5 655,-383.5 655,-300.5 655,-300.5 655,-294.5 661,-288.5 667,-288.5"/>
<text text-anchor="middle" x="797" y="-374.4" font-family="Times,serif" font-size="18.00">Nodetype: Operation</text>
<polyline fill="none" stroke="black" points="655,-368.75 939,-368.75"/>
<text text-anchor="middle" x="797" y="-347.65" font-family="Times,serif" font-size="18.00">TypeOperation: +</text>
<polyline fill="none" stroke="black" points="655,-342 939,-342"/>
<text text-anchor="middle" x="797" y="-320.9" font-family="Times,serif" font-size="18.00">0x5030000004c0</text>
<polyline fill="none" stroke="black" points="655,-315.25 939,-315.25"/>
<text text-anchor="middle" x="726" y="-294.15" font-family="Times,serif" font-size="18.00">0x503000000490</text>
<polyline fill="none" stroke="black" points="797,-288.5 797,-315.25"/>
<text text-anchor="middle" x="868" y="-294.15" font-family="Times,serif" font-size="18.00">0x503000000460</text>
</g>
<!-- 0x503000000520&#45;&gt;0x5030000004c0 -->
<g id="edge9" class="edge">
<title>0x503000000520&#45;&gt;0x5030000004c0</title>
<path fill="none" stroke="black" d="M674.61,-432.12C687.81,-422.51 701.66,-412.43 715.1,-402.64"/>
<polygon fill="black" stroke="black" points="717.08,-405.53 723.11,-396.81 712.96,-399.87 717.08,-405.53"/>
</g>
<!-- 0x503000000490 -->
<g id="node11" class="node">
<title>0x503000000490</title>
<path fill="lightskyblue" stroke="black" d="M654,-144.5C654,-144.5 772,-144.5 772,-144.5 778,-144.5 784,-150.5 784,-156.5 784,-156.5 784,-239.5 784,-239.5 784,-245.5 778,-251.5 772,-251.5 772,-251.5 654,-251.5 654,-251.5 648,-251.5 642,-245.5 642,-239.5 642,-239.5 642,-156.5 642,-156.5 642,-150.5 648,-144.5 654,-144.5"/>
<text text-anchor="middle" x="713" y="-230.4" font-family="Times,serif" font-size="18.00">Nodetype: Num</text>
<polyline fill="none" stroke="black" points="642,-224.75 784,-224.75"/>
<text text-anchor="middle" x="713" y="-203.65" font-family="Times,serif" font-size="18.00">Num: 1.00</text>
<polyline fill="none" stroke="black" points="642,-198 784,-198"/>
<text text-anchor="middle" x="713" y="-176.9" font-family="Times,serif" font-size="18.00">0x503000000490</text>
<polyline fill="none" stroke="black" points="642,-171.25 784,-171.25"/>
<text text-anchor="middle" x="677.25" y="-150.15" font-family="Times,serif" font-size="18.00">(nil)</text>
<polyline fill="none" stroke="black" points="712.5,-144.5 712.5,-171.25"/>
<text text-anchor="middle" x="748.25" y="-150.15" font-family="Times,serif" font-size="18.00">(nil)</text>
</g>
<!-- 0x5030000004c0&#45;&gt;0x503000000490 -->
<g id="edge10" class="edge">
<title>0x5030000004c0&#45;&gt;0x503000000490</title>
<path fill="none" stroke="black" d="M765.72,-288.12C760.64,-279.53 755.33,-270.56 750.12,-261.76"/>
<polygon fill="black" stroke="black" points="753.18,-260.05 745.08,-253.22 747.15,-263.61 753.18,-260.05"/>
</g>
<!-- 0x503000000460 -->
<g id="node12" class="node">
<title>0x503000000460</title>
<path fill="green" stroke="black" d="M814.5,-144.5C814.5,-144.5 947.5,-144.5 947.5,-144.5 953.5,-144.5 959.5,-150.5 959.5,-156.5 959.5,-156.5 959.5,-239.5 959.5,-239.5 959.5,-245.5 953.5,-251.5 947.5,-251.5 947.5,-251.5 814.5,-251.5 814.5,-251.5 808.5,-251.5 802.5,-245.5 802.5,-239.5 802.5,-239.5 802.5,-156.5 802.5,-156.5 802.5,-150.5 808.5,-144.5 814.5,-144.5"/>
<text text-anchor="middle" x="881" y="-230.4" font-family="Times,serif" font-size="18.00">Nodetype: Variable</text>
<polyline fill="none" stroke="black" points="802.5,-224.75 959.5,-224.75"/>
<text text-anchor="middle" x="881" y="-203.65" font-family="Times,serif" font-size="18.00">Var: x</text>
<polyline fill="none" stroke="black" points="802.5,-198 959.5,-198"/>
<text text-anchor="middle" x="881" y="-176.9" font-family="Times,serif" font-size="18.00">0x503000000460</text>
<polyline fill="none" stroke="black" points="802.5,-171.25 959.5,-171.25"/>
<text text-anchor="middle" x="841.75" y="-150.15" font-family="Times,serif" font-size="18.00">(nil)</text>
<polyline fill="none" stroke="black" points="881,-144.5 881,-171.25"/>
<text text-anchor="middle" x="920.25" y="-150.15" font-family="Times,serif" font-size="18.00">(nil)</text>
</g>
<!-- 0x5030000004c0&#45;&gt;0x503000000460 -->
<g id="edge11" class="edge">
<title>0x5030000004c0&#45;&gt;0x503000000460</title>
<path fill="none" stroke="black" d="M828.28,-288.12C833.36,-279.53 838.67,-270.56 843.88,-261.76"/>
<polygon fill="black" stroke="black" points="846.85,-263.61 848.92,-253.22 840.82,-260.05 846.85,-263.61"/>
</g>
</g>
</svg>
