<?xml version="1.0" encoding="UTF-8" standalone="no"?>
<!DOCTYPE svg PUBLIC "-//W3C//DTD SVG 1.1//EN"
 "http://www.w3.org/Graphics/SVG/1.1/DTD/svg11.dtd">
<!-- Generated by graphviz version 11.0.0 (0)
 -->
<!-- Pages: 1 -->
<svg width="793pt" height="890pt"
 viewBox="0.00 0.00 792.50 890.00" xmlns="http://www.w3.org/2000/svg" xmlns:xlink="http://www.w3.org/1999/xlink">
<g id="graph0" class="graph" transform="scale(1 1) rotate(0) translate(4 886)">
<polygon fill="white" stroke="none" points="-4,4 -4,-886 788.5,-886 788.5,4 -4,4"/>
<!-- 0x5030000002b0 -->
<g id="node1" class="node">
<title>0x5030000002b0</title>
<path fill="crimson" stroke="black" d="M421.25,-765.5C421.25,-765.5 678.25,-765.5 678.25,-765.5 684.25,-765.5 690.25,-771.5 690.25,-777.5 690.25,-777.5 690.25,-869.5 690.25,-869.5 690.25,-875.5 684.25,-881.5 678.25,-881.5 678.25,-881.5 421.25,-881.5 421.25,-881.5 415.25,-881.5 409.25,-875.5 409.25,-869.5 409.25,-869.5 409.25,-777.5 409.25,-777.5 409.25,-771.5 415.25,-765.5 421.25,-765.5"/>
<text text-anchor="middle" x="549.75" y="-860.4" font-family="Times,serif" font-size="18.00">Nodetype: Operation</text>
<polyline fill="none" stroke="black" points="409.25,-852.5 690.25,-852.5"/>
<text text-anchor="middle" x="549.75" y="-831.4" font-family="Times,serif" font-size="18.00">TypeOperation: ^</text>
<polyline fill="none" stroke="black" points="409.25,-823.5 690.25,-823.5"/>
<text text-anchor="middle" x="549.75" y="-802.4" font-family="Times,serif" font-size="18.00">0x5030000002b0</text>
<polyline fill="none" stroke="black" points="409.25,-794.5 690.25,-794.5"/>
<text text-anchor="middle" x="478.75" y="-773.4" font-family="Times,serif" font-size="18.00">0x5030000001f0</text>
<polyline fill="none" stroke="black" points="548.25,-765.5 548.25,-794.5"/>
<text text-anchor="middle" x="619.25" y="-773.4" font-family="Times,serif" font-size="18.00">0x503000000280</text>
</g>
<!-- 0x5030000001f0 -->
<g id="node2" class="node">
<title>0x5030000001f0</title>
<path fill="crimson" stroke="black" d="M293.12,-612.5C293.12,-612.5 552.38,-612.5 552.38,-612.5 558.38,-612.5 564.38,-618.5 564.38,-624.5 564.38,-624.5 564.38,-716.5 564.38,-716.5 564.38,-722.5 558.38,-728.5 552.38,-728.5 552.38,-728.5 293.12,-728.5 293.12,-728.5 287.12,-728.5 281.12,-722.5 281.12,-716.5 281.12,-716.5 281.12,-624.5 281.12,-624.5 281.12,-618.5 287.12,-612.5 293.12,-612.5"/>
<text text-anchor="middle" x="422.75" y="-707.4" font-family="Times,serif" font-size="18.00">Nodetype: Operation</text>
<polyline fill="none" stroke="black" points="281.12,-699.5 564.38,-699.5"/>
<text text-anchor="middle" x="422.75" y="-678.4" font-family="Times,serif" font-size="18.00">TypeOperation: /</text>
<polyline fill="none" stroke="black" points="281.12,-670.5 564.38,-670.5"/>
<text text-anchor="middle" x="422.75" y="-649.4" font-family="Times,serif" font-size="18.00">0x5030000001f0</text>
<polyline fill="none" stroke="black" points="281.12,-641.5 564.38,-641.5"/>
<text text-anchor="middle" x="352.12" y="-620.4" font-family="Times,serif" font-size="18.00">0x5030000000d0</text>
<polyline fill="none" stroke="black" points="423.12,-612.5 423.12,-641.5"/>
<text text-anchor="middle" x="493.75" y="-620.4" font-family="Times,serif" font-size="18.00">0x5030000001c0</text>
</g>
<!-- 0x5030000002b0&#45;&gt;0x5030000001f0 -->
<g id="edge1" class="edge">
<title>0x5030000002b0&#45;&gt;0x5030000001f0</title>
<path fill="none" stroke="black" d="M501.74,-765.41C494.12,-756.36 486.2,-746.94 478.43,-737.7"/>
<polygon fill="black" stroke="black" points="481.13,-735.48 472.02,-730.08 475.77,-739.98 481.13,-735.48"/>
</g>
<!-- 0x503000000280 -->
<g id="node12" class="node">
<title>0x503000000280</title>
<path fill="orange" stroke="black" d="M594,-612.5C594,-612.5 759.5,-612.5 759.5,-612.5 765.5,-612.5 771.5,-618.5 771.5,-624.5 771.5,-624.5 771.5,-716.5 771.5,-716.5 771.5,-722.5 765.5,-728.5 759.5,-728.5 759.5,-728.5 594,-728.5 594,-728.5 588,-728.5 582,-722.5 582,-716.5 582,-716.5 582,-624.5 582,-624.5 582,-618.5 588,-612.5 594,-612.5"/>
<text text-anchor="middle" x="676.75" y="-707.4" font-family="Times,serif" font-size="18.00">Nodetype: Function</text>
<polyline fill="none" stroke="black" points="582,-699.5 771.5,-699.5"/>
<text text-anchor="middle" x="676.75" y="-678.4" font-family="Times,serif" font-size="18.00">TypeFunction: ln</text>
<polyline fill="none" stroke="black" points="582,-670.5 771.5,-670.5"/>
<text text-anchor="middle" x="676.75" y="-649.4" font-family="Times,serif" font-size="18.00">0x503000000280</text>
<polyline fill="none" stroke="black" points="582,-641.5 771.5,-641.5"/>
<text text-anchor="middle" x="653" y="-620.4" font-family="Times,serif" font-size="18.00">0x503000000250</text>
<polyline fill="none" stroke="black" points="724,-612.5 724,-641.5"/>
<text text-anchor="middle" x="747.75" y="-620.4" font-family="Times,serif" font-size="18.00">(nil)</text>
</g>
<!-- 0x5030000002b0&#45;&gt;0x503000000280 -->
<g id="edge11" class="edge">
<title>0x5030000002b0&#45;&gt;0x503000000280</title>
<path fill="none" stroke="black" d="M597.76,-765.41C605.38,-756.36 613.3,-746.94 621.07,-737.7"/>
<polygon fill="black" stroke="black" points="623.73,-739.98 627.48,-730.08 618.37,-735.48 623.73,-739.98"/>
</g>
<!-- 0x5030000000d0 -->
<g id="node3" class="node">
<title>0x5030000000d0</title>
<path fill="orange" stroke="black" d="M61.38,-459.5C61.38,-459.5 226.12,-459.5 226.12,-459.5 232.12,-459.5 238.12,-465.5 238.12,-471.5 238.12,-471.5 238.12,-563.5 238.12,-563.5 238.12,-569.5 232.12,-575.5 226.12,-575.5 226.12,-575.5 61.38,-575.5 61.38,-575.5 55.38,-575.5 49.38,-569.5 49.38,-563.5 49.38,-563.5 49.38,-471.5 49.38,-471.5 49.38,-465.5 55.38,-459.5 61.38,-459.5"/>
<text text-anchor="middle" x="143.75" y="-554.4" font-family="Times,serif" font-size="18.00">Nodetype: Function</text>
<polyline fill="none" stroke="black" points="49.38,-546.5 238.12,-546.5"/>
<text text-anchor="middle" x="143.75" y="-525.4" font-family="Times,serif" font-size="18.00">TypeFunction: ch</text>
<polyline fill="none" stroke="black" points="49.38,-517.5 238.12,-517.5"/>
<text text-anchor="middle" x="143.75" y="-496.4" font-family="Times,serif" font-size="18.00">0x5030000000d0</text>
<polyline fill="none" stroke="black" points="49.38,-488.5 238.12,-488.5"/>
<text text-anchor="middle" x="120" y="-467.4" font-family="Times,serif" font-size="18.00">0x5030000000a0</text>
<polyline fill="none" stroke="black" points="190.62,-459.5 190.62,-488.5"/>
<text text-anchor="middle" x="214.38" y="-467.4" font-family="Times,serif" font-size="18.00">(nil)</text>
</g>
<!-- 0x5030000001f0&#45;&gt;0x5030000000d0 -->
<g id="edge2" class="edge">
<title>0x5030000001f0&#45;&gt;0x5030000000d0</title>
<path fill="none" stroke="black" d="M316.87,-612.2C294.45,-600.06 270.79,-587.26 248.41,-575.14"/>
<polygon fill="black" stroke="black" points="250.36,-572.22 239.9,-570.54 247.03,-578.38 250.36,-572.22"/>
</g>
<!-- 0x5030000001c0 -->
<g id="node7" class="node">
<title>0x5030000001c0</title>
<path fill="crimson" stroke="black" d="M292.75,-459.5C292.75,-459.5 552.75,-459.5 552.75,-459.5 558.75,-459.5 564.75,-465.5 564.75,-471.5 564.75,-471.5 564.75,-563.5 564.75,-563.5 564.75,-569.5 558.75,-575.5 552.75,-575.5 552.75,-575.5 292.75,-575.5 292.75,-575.5 286.75,-575.5 280.75,-569.5 280.75,-563.5 280.75,-563.5 280.75,-471.5 280.75,-471.5 280.75,-465.5 286.75,-459.5 292.75,-459.5"/>
<text text-anchor="middle" x="422.75" y="-554.4" font-family="Times,serif" font-size="18.00">Nodetype: Operation</text>
<polyline fill="none" stroke="black" points="280.75,-546.5 564.75,-546.5"/>
<text text-anchor="middle" x="422.75" y="-525.4" font-family="Times,serif" font-size="18.00">TypeOperation: +</text>
<polyline fill="none" stroke="black" points="280.75,-517.5 564.75,-517.5"/>
<text text-anchor="middle" x="422.75" y="-496.4" font-family="Times,serif" font-size="18.00">0x5030000001c0</text>
<polyline fill="none" stroke="black" points="280.75,-488.5 564.75,-488.5"/>
<text text-anchor="middle" x="351.75" y="-467.4" font-family="Times,serif" font-size="18.00">0x503000000130</text>
<polyline fill="none" stroke="black" points="422.75,-459.5 422.75,-488.5"/>
<text text-anchor="middle" x="493.75" y="-467.4" font-family="Times,serif" font-size="18.00">0x503000000190</text>
</g>
<!-- 0x5030000001f0&#45;&gt;0x5030000001c0 -->
<g id="edge6" class="edge">
<title>0x5030000001f0&#45;&gt;0x5030000001c0</title>
<path fill="none" stroke="black" d="M422.75,-612.41C422.75,-604.2 422.75,-595.68 422.75,-587.27"/>
<polygon fill="black" stroke="black" points="426.25,-587.43 422.75,-577.43 419.25,-587.43 426.25,-587.43"/>
</g>
<!-- 0x5030000000a0 -->
<g id="node4" class="node">
<title>0x5030000000a0</title>
<path fill="orange" stroke="black" d="M12,-306.5C12,-306.5 177.5,-306.5 177.5,-306.5 183.5,-306.5 189.5,-312.5 189.5,-318.5 189.5,-318.5 189.5,-410.5 189.5,-410.5 189.5,-416.5 183.5,-422.5 177.5,-422.5 177.5,-422.5 12,-422.5 12,-422.5 6,-422.5 0,-416.5 0,-410.5 0,-410.5 0,-318.5 0,-318.5 0,-312.5 6,-306.5 12,-306.5"/>
<text text-anchor="middle" x="94.75" y="-401.4" font-family="Times,serif" font-size="18.00">Nodetype: Function</text>
<polyline fill="none" stroke="black" points="0,-393.5 189.5,-393.5"/>
<text text-anchor="middle" x="94.75" y="-372.4" font-family="Times,serif" font-size="18.00">TypeFunction: arcsin</text>
<polyline fill="none" stroke="black" points="0,-364.5 189.5,-364.5"/>
<text text-anchor="middle" x="94.75" y="-343.4" font-family="Times,serif" font-size="18.00">0x5030000000a0</text>
<polyline fill="none" stroke="black" points="0,-335.5 189.5,-335.5"/>
<text text-anchor="middle" x="71" y="-314.4" font-family="Times,serif" font-size="18.00">0x503000000070</text>
<polyline fill="none" stroke="black" points="142,-306.5 142,-335.5"/>
<text text-anchor="middle" x="165.75" y="-314.4" font-family="Times,serif" font-size="18.00">(nil)</text>
</g>
<!-- 0x5030000000d0&#45;&gt;0x5030000000a0 -->
<g id="edge3" class="edge">
<title>0x5030000000d0&#45;&gt;0x5030000000a0</title>
<path fill="none" stroke="black" d="M125.23,-459.41C122.5,-451.02 119.67,-442.3 116.88,-433.7"/>
<polygon fill="black" stroke="black" points="120.27,-432.79 113.85,-424.36 113.61,-434.95 120.27,-432.79"/>
</g>
<!-- 0x503000000070 -->
<g id="node5" class="node">
<title>0x503000000070</title>
<path fill="orange" stroke="black" d="M12,-153.5C12,-153.5 177.5,-153.5 177.5,-153.5 183.5,-153.5 189.5,-159.5 189.5,-165.5 189.5,-165.5 189.5,-257.5 189.5,-257.5 189.5,-263.5 183.5,-269.5 177.5,-269.5 177.5,-269.5 12,-269.5 12,-269.5 6,-269.5 0,-263.5 0,-257.5 0,-257.5 0,-165.5 0,-165.5 0,-159.5 6,-153.5 12,-153.5"/>
<text text-anchor="middle" x="94.75" y="-248.4" font-family="Times,serif" font-size="18.00">Nodetype: Function</text>
<polyline fill="none" stroke="black" points="0,-240.5 189.5,-240.5"/>
<text text-anchor="middle" x="94.75" y="-219.4" font-family="Times,serif" font-size="18.00">TypeFunction: cos</text>
<polyline fill="none" stroke="black" points="0,-211.5 189.5,-211.5"/>
<text text-anchor="middle" x="94.75" y="-190.4" font-family="Times,serif" font-size="18.00">0x503000000070</text>
<polyline fill="none" stroke="black" points="0,-182.5 189.5,-182.5"/>
<text text-anchor="middle" x="71" y="-161.4" font-family="Times,serif" font-size="18.00">0x503000000040</text>
<polyline fill="none" stroke="black" points="142,-153.5 142,-182.5"/>
<text text-anchor="middle" x="165.75" y="-161.4" font-family="Times,serif" font-size="18.00">(nil)</text>
</g>
<!-- 0x5030000000a0&#45;&gt;0x503000000070 -->
<g id="edge4" class="edge">
<title>0x5030000000a0&#45;&gt;0x503000000070</title>
<path fill="none" stroke="black" d="M94.75,-306.41C94.75,-298.2 94.75,-289.68 94.75,-281.27"/>
<polygon fill="black" stroke="black" points="98.25,-281.43 94.75,-271.43 91.25,-281.43 98.25,-281.43"/>
</g>
<!-- 0x503000000040 -->
<g id="node6" class="node">
<title>0x503000000040</title>
<path fill="green" stroke="black" d="M27.88,-0.5C27.88,-0.5 161.62,-0.5 161.62,-0.5 167.62,-0.5 173.62,-6.5 173.62,-12.5 173.62,-12.5 173.62,-104.5 173.62,-104.5 173.62,-110.5 167.62,-116.5 161.62,-116.5 161.62,-116.5 27.88,-116.5 27.88,-116.5 21.88,-116.5 15.88,-110.5 15.88,-104.5 15.88,-104.5 15.88,-12.5 15.88,-12.5 15.88,-6.5 21.88,-0.5 27.88,-0.5"/>
<text text-anchor="middle" x="94.75" y="-95.4" font-family="Times,serif" font-size="18.00">Nodetype: Variable</text>
<polyline fill="none" stroke="black" points="15.88,-87.5 173.62,-87.5"/>
<text text-anchor="middle" x="94.75" y="-66.4" font-family="Times,serif" font-size="18.00">Var: x</text>
<polyline fill="none" stroke="black" points="15.88,-58.5 173.62,-58.5"/>
<text text-anchor="middle" x="94.75" y="-37.4" font-family="Times,serif" font-size="18.00">0x503000000040</text>
<polyline fill="none" stroke="black" points="15.88,-29.5 173.62,-29.5"/>
<text text-anchor="middle" x="55.12" y="-8.4" font-family="Times,serif" font-size="18.00">(nil)</text>
<polyline fill="none" stroke="black" points="94.38,-0.5 94.38,-29.5"/>
<text text-anchor="middle" x="133.62" y="-8.4" font-family="Times,serif" font-size="18.00">(nil)</text>
</g>
<!-- 0x503000000070&#45;&gt;0x503000000040 -->
<g id="edge5" class="edge">
<title>0x503000000070&#45;&gt;0x503000000040</title>
<path fill="none" stroke="black" d="M94.75,-153.41C94.75,-145.2 94.75,-136.68 94.75,-128.27"/>
<polygon fill="black" stroke="black" points="98.25,-128.43 94.75,-118.43 91.25,-128.43 98.25,-128.43"/>
</g>
<!-- 0x503000000130 -->
<g id="node8" class="node">
<title>0x503000000130</title>
<path fill="orange" stroke="black" d="M220,-306.5C220,-306.5 385.5,-306.5 385.5,-306.5 391.5,-306.5 397.5,-312.5 397.5,-318.5 397.5,-318.5 397.5,-410.5 397.5,-410.5 397.5,-416.5 391.5,-422.5 385.5,-422.5 385.5,-422.5 220,-422.5 220,-422.5 214,-422.5 208,-416.5 208,-410.5 208,-410.5 208,-318.5 208,-318.5 208,-312.5 214,-306.5 220,-306.5"/>
<text text-anchor="middle" x="302.75" y="-401.4" font-family="Times,serif" font-size="18.00">Nodetype: Function</text>
<polyline fill="none" stroke="black" points="208,-393.5 397.5,-393.5"/>
<text text-anchor="middle" x="302.75" y="-372.4" font-family="Times,serif" font-size="18.00">TypeFunction: cos</text>
<polyline fill="none" stroke="black" points="208,-364.5 397.5,-364.5"/>
<text text-anchor="middle" x="302.75" y="-343.4" font-family="Times,serif" font-size="18.00">0x503000000130</text>
<polyline fill="none" stroke="black" points="208,-335.5 397.5,-335.5"/>
<text text-anchor="middle" x="279" y="-314.4" font-family="Times,serif" font-size="18.00">0x503000000100</text>
<polyline fill="none" stroke="black" points="350,-306.5 350,-335.5"/>
<text text-anchor="middle" x="373.75" y="-314.4" font-family="Times,serif" font-size="18.00">(nil)</text>
</g>
<!-- 0x5030000001c0&#45;&gt;0x503000000130 -->
<g id="edge7" class="edge">
<title>0x5030000001c0&#45;&gt;0x503000000130</title>
<path fill="none" stroke="black" d="M377.38,-459.41C370.19,-450.36 362.7,-440.94 355.36,-431.7"/>
<polygon fill="black" stroke="black" points="358.28,-429.75 349.32,-424.1 352.8,-434.11 358.28,-429.75"/>
</g>
<!-- 0x503000000190 -->
<g id="node10" class="node">
<title>0x503000000190</title>
<path fill="orange" stroke="black" d="M428,-306.5C428,-306.5 593.5,-306.5 593.5,-306.5 599.5,-306.5 605.5,-312.5 605.5,-318.5 605.5,-318.5 605.5,-410.5 605.5,-410.5 605.5,-416.5 599.5,-422.5 593.5,-422.5 593.5,-422.5 428,-422.5 428,-422.5 422,-422.5 416,-416.5 416,-410.5 416,-410.5 416,-318.5 416,-318.5 416,-312.5 422,-306.5 428,-306.5"/>
<text text-anchor="middle" x="510.75" y="-401.4" font-family="Times,serif" font-size="18.00">Nodetype: Function</text>
<polyline fill="none" stroke="black" points="416,-393.5 605.5,-393.5"/>
<text text-anchor="middle" x="510.75" y="-372.4" font-family="Times,serif" font-size="18.00">TypeFunction: th</text>
<polyline fill="none" stroke="black" points="416,-364.5 605.5,-364.5"/>
<text text-anchor="middle" x="510.75" y="-343.4" font-family="Times,serif" font-size="18.00">0x503000000190</text>
<polyline fill="none" stroke="black" points="416,-335.5 605.5,-335.5"/>
<text text-anchor="middle" x="487" y="-314.4" font-family="Times,serif" font-size="18.00">0x503000000160</text>
<polyline fill="none" stroke="black" points="558,-306.5 558,-335.5"/>
<text text-anchor="middle" x="581.75" y="-314.4" font-family="Times,serif" font-size="18.00">(nil)</text>
</g>
<!-- 0x5030000001c0&#45;&gt;0x503000000190 -->
<g id="edge9" class="edge">
<title>0x5030000001c0&#45;&gt;0x503000000190</title>
<path fill="none" stroke="black" d="M456.02,-459.41C461.08,-450.74 466.33,-441.71 471.5,-432.84"/>
<polygon fill="black" stroke="black" points="474.51,-434.63 476.53,-424.23 468.47,-431.1 474.51,-434.63"/>
</g>
<!-- 0x503000000100 -->
<g id="node9" class="node">
<title>0x503000000100</title>
<path fill="green" stroke="black" d="M235.88,-153.5C235.88,-153.5 369.62,-153.5 369.62,-153.5 375.62,-153.5 381.62,-159.5 381.62,-165.5 381.62,-165.5 381.62,-257.5 381.62,-257.5 381.62,-263.5 375.62,-269.5 369.62,-269.5 369.62,-269.5 235.88,-269.5 235.88,-269.5 229.88,-269.5 223.88,-263.5 223.88,-257.5 223.88,-257.5 223.88,-165.5 223.88,-165.5 223.88,-159.5 229.88,-153.5 235.88,-153.5"/>
<text text-anchor="middle" x="302.75" y="-248.4" font-family="Times,serif" font-size="18.00">Nodetype: Variable</text>
<polyline fill="none" stroke="black" points="223.88,-240.5 381.62,-240.5"/>
<text text-anchor="middle" x="302.75" y="-219.4" font-family="Times,serif" font-size="18.00">Var: x</text>
<polyline fill="none" stroke="black" points="223.88,-211.5 381.62,-211.5"/>
<text text-anchor="middle" x="302.75" y="-190.4" font-family="Times,serif" font-size="18.00">0x503000000100</text>
<polyline fill="none" stroke="black" points="223.88,-182.5 381.62,-182.5"/>
<text text-anchor="middle" x="263.12" y="-161.4" font-family="Times,serif" font-size="18.00">(nil)</text>
<polyline fill="none" stroke="black" points="302.38,-153.5 302.38,-182.5"/>
<text text-anchor="middle" x="341.62" y="-161.4" font-family="Times,serif" font-size="18.00">(nil)</text>
</g>
<!-- 0x503000000130&#45;&gt;0x503000000100 -->
<g id="edge8" class="edge">
<title>0x503000000130&#45;&gt;0x503000000100</title>
<path fill="none" stroke="black" d="M302.75,-306.41C302.75,-298.2 302.75,-289.68 302.75,-281.27"/>
<polygon fill="black" stroke="black" points="306.25,-281.43 302.75,-271.43 299.25,-281.43 306.25,-281.43"/>
</g>
<!-- 0x503000000160 -->
<g id="node11" class="node">
<title>0x503000000160</title>
<path fill="green" stroke="black" d="M443.88,-153.5C443.88,-153.5 577.62,-153.5 577.62,-153.5 583.62,-153.5 589.62,-159.5 589.62,-165.5 589.62,-165.5 589.62,-257.5 589.62,-257.5 589.62,-263.5 583.62,-269.5 577.62,-269.5 577.62,-269.5 443.88,-269.5 443.88,-269.5 437.88,-269.5 431.88,-263.5 431.88,-257.5 431.88,-257.5 431.88,-165.5 431.88,-165.5 431.88,-159.5 437.88,-153.5 443.88,-153.5"/>
<text text-anchor="middle" x="510.75" y="-248.4" font-family="Times,serif" font-size="18.00">Nodetype: Variable</text>
<polyline fill="none" stroke="black" points="431.88,-240.5 589.62,-240.5"/>
<text text-anchor="middle" x="510.75" y="-219.4" font-family="Times,serif" font-size="18.00">Var: x</text>
<polyline fill="none" stroke="black" points="431.88,-211.5 589.62,-211.5"/>
<text text-anchor="middle" x="510.75" y="-190.4" font-family="Times,serif" font-size="18.00">0x503000000160</text>
<polyline fill="none" stroke="black" points="431.88,-182.5 589.62,-182.5"/>
<text text-anchor="middle" x="471.12" y="-161.4" font-family="Times,serif" font-size="18.00">(nil)</text>
<polyline fill="none" stroke="black" points="510.38,-153.5 510.38,-182.5"/>
<text text-anchor="middle" x="549.62" y="-161.4" font-family="Times,serif" font-size="18.00">(nil)</text>
</g>
<!-- 0x503000000190&#45;&gt;0x503000000160 -->
<g id="edge10" class="edge">
<title>0x503000000190&#45;&gt;0x503000000160</title>
<path fill="none" stroke="black" d="M510.75,-306.41C510.75,-298.2 510.75,-289.68 510.75,-281.27"/>
<polygon fill="black" stroke="black" points="514.25,-281.43 510.75,-271.43 507.25,-281.43 514.25,-281.43"/>
</g>
<!-- 0x503000000250 -->
<g id="node13" class="node">
<title>0x503000000250</title>
<path fill="orange" stroke="black" d="M607,-459.5C607,-459.5 772.5,-459.5 772.5,-459.5 778.5,-459.5 784.5,-465.5 784.5,-471.5 784.5,-471.5 784.5,-563.5 784.5,-563.5 784.5,-569.5 778.5,-575.5 772.5,-575.5 772.5,-575.5 607,-575.5 607,-575.5 601,-575.5 595,-569.5 595,-563.5 595,-563.5 595,-471.5 595,-471.5 595,-465.5 601,-459.5 607,-459.5"/>
<text text-anchor="middle" x="689.75" y="-554.4" font-family="Times,serif" font-size="18.00">Nodetype: Function</text>
<polyline fill="none" stroke="black" points="595,-546.5 784.5,-546.5"/>
<text text-anchor="middle" x="689.75" y="-525.4" font-family="Times,serif" font-size="18.00">TypeFunction: ch</text>
<polyline fill="none" stroke="black" points="595,-517.5 784.5,-517.5"/>
<text text-anchor="middle" x="689.75" y="-496.4" font-family="Times,serif" font-size="18.00">0x503000000250</text>
<polyline fill="none" stroke="black" points="595,-488.5 784.5,-488.5"/>
<text text-anchor="middle" x="666" y="-467.4" font-family="Times,serif" font-size="18.00">0x503000000220</text>
<polyline fill="none" stroke="black" points="737,-459.5 737,-488.5"/>
<text text-anchor="middle" x="760.75" y="-467.4" font-family="Times,serif" font-size="18.00">(nil)</text>
</g>
<!-- 0x503000000280&#45;&gt;0x503000000250 -->
<g id="edge12" class="edge">
<title>0x503000000280&#45;&gt;0x503000000250</title>
<path fill="none" stroke="black" d="M681.66,-612.41C682.37,-604.2 683.11,-595.68 683.83,-587.27"/>
<polygon fill="black" stroke="black" points="687.31,-587.69 684.68,-577.43 680.33,-587.09 687.31,-587.69"/>
</g>
<!-- 0x503000000220 -->
<g id="node14" class="node">
<title>0x503000000220</title>
<path fill="green" stroke="black" d="M635.88,-306.5C635.88,-306.5 769.62,-306.5 769.62,-306.5 775.62,-306.5 781.62,-312.5 781.62,-318.5 781.62,-318.5 781.62,-410.5 781.62,-410.5 781.62,-416.5 775.62,-422.5 769.62,-422.5 769.62,-422.5 635.88,-422.5 635.88,-422.5 629.88,-422.5 623.88,-416.5 623.88,-410.5 623.88,-410.5 623.88,-318.5 623.88,-318.5 623.88,-312.5 629.88,-306.5 635.88,-306.5"/>
<text text-anchor="middle" x="702.75" y="-401.4" font-family="Times,serif" font-size="18.00">Nodetype: Variable</text>
<polyline fill="none" stroke="black" points="623.88,-393.5 781.62,-393.5"/>
<text text-anchor="middle" x="702.75" y="-372.4" font-family="Times,serif" font-size="18.00">Var: x</text>
<polyline fill="none" stroke="black" points="623.88,-364.5 781.62,-364.5"/>
<text text-anchor="middle" x="702.75" y="-343.4" font-family="Times,serif" font-size="18.00">0x503000000220</text>
<polyline fill="none" stroke="black" points="623.88,-335.5 781.62,-335.5"/>
<text text-anchor="middle" x="663.12" y="-314.4" font-family="Times,serif" font-size="18.00">(nil)</text>
<polyline fill="none" stroke="black" points="702.38,-306.5 702.38,-335.5"/>
<text text-anchor="middle" x="741.62" y="-314.4" font-family="Times,serif" font-size="18.00">(nil)</text>
</g>
<!-- 0x503000000250&#45;&gt;0x503000000220 -->
<g id="edge13" class="edge">
<title>0x503000000250&#45;&gt;0x503000000220</title>
<path fill="none" stroke="black" d="M694.66,-459.41C695.37,-451.2 696.11,-442.68 696.83,-434.27"/>
<polygon fill="black" stroke="black" points="700.31,-434.69 697.68,-424.43 693.33,-434.09 700.31,-434.69"/>
</g>
</g>
</svg>
