<?xml version="1.0" encoding="UTF-8" standalone="no"?>
<!DOCTYPE svg PUBLIC "-//W3C//DTD SVG 1.1//EN"
 "http://www.w3.org/Graphics/SVG/1.1/DTD/svg11.dtd">
<!-- Generated by graphviz version 11.0.0 (0)
 -->
<!-- Pages: 1 -->
<svg width="729pt" height="548pt"
 viewBox="0.00 0.00 728.50 548.00" xmlns="http://www.w3.org/2000/svg" xmlns:xlink="http://www.w3.org/1999/xlink">
<g id="graph0" class="graph" transform="scale(1 1) rotate(0) translate(4 544)">
<polygon fill="white" stroke="none" points="-4,4 -4,-544 724.5,-544 724.5,4 -4,4"/>
<!-- 0x5030000001f0 -->
<g id="node1" class="node">
<title>0x5030000001f0</title>
<path fill="crimson" stroke="black" d="M226.38,-432.5C226.38,-432.5 485.62,-432.5 485.62,-432.5 491.62,-432.5 497.62,-438.5 497.62,-444.5 497.62,-444.5 497.62,-527.5 497.62,-527.5 497.62,-533.5 491.62,-539.5 485.62,-539.5 485.62,-539.5 226.38,-539.5 226.38,-539.5 220.38,-539.5 214.38,-533.5 214.38,-527.5 214.38,-527.5 214.38,-444.5 214.38,-444.5 214.38,-438.5 220.38,-432.5 226.38,-432.5"/>
<text text-anchor="middle" x="356" y="-518.4" font-family="Times,serif" font-size="18.00">Nodetype: Operation</text>
<polyline fill="none" stroke="black" points="214.38,-512.75 497.62,-512.75"/>
<text text-anchor="middle" x="356" y="-491.65" font-family="Times,serif" font-size="18.00">TypeOperation: +</text>
<polyline fill="none" stroke="black" points="214.38,-486 497.62,-486"/>
<text text-anchor="middle" x="356" y="-464.9" font-family="Times,serif" font-size="18.00">0x5030000001f0</text>
<polyline fill="none" stroke="black" points="214.38,-459.25 497.62,-459.25"/>
<text text-anchor="middle" x="285.38" y="-438.15" font-family="Times,serif" font-size="18.00">0x503000000100</text>
<polyline fill="none" stroke="black" points="356.38,-432.5 356.38,-459.25"/>
<text text-anchor="middle" x="427" y="-438.15" font-family="Times,serif" font-size="18.00">0x5030000001c0</text>
</g>
<!-- 0x503000000100 -->
<g id="node2" class="node">
<title>0x503000000100</title>
<path fill="orange" stroke="black" d="M169.25,-288.5C169.25,-288.5 334.75,-288.5 334.75,-288.5 340.75,-288.5 346.75,-294.5 346.75,-300.5 346.75,-300.5 346.75,-383.5 346.75,-383.5 346.75,-389.5 340.75,-395.5 334.75,-395.5 334.75,-395.5 169.25,-395.5 169.25,-395.5 163.25,-395.5 157.25,-389.5 157.25,-383.5 157.25,-383.5 157.25,-300.5 157.25,-300.5 157.25,-294.5 163.25,-288.5 169.25,-288.5"/>
<text text-anchor="middle" x="252" y="-374.4" font-family="Times,serif" font-size="18.00">Nodetype: Function</text>
<polyline fill="none" stroke="black" points="157.25,-368.75 346.75,-368.75"/>
<text text-anchor="middle" x="252" y="-347.65" font-family="Times,serif" font-size="18.00">TypeFunction: sin</text>
<polyline fill="none" stroke="black" points="157.25,-342 346.75,-342"/>
<text text-anchor="middle" x="252" y="-320.9" font-family="Times,serif" font-size="18.00">0x503000000100</text>
<polyline fill="none" stroke="black" points="157.25,-315.25 346.75,-315.25"/>
<text text-anchor="middle" x="228.25" y="-294.15" font-family="Times,serif" font-size="18.00">0x5030000000d0</text>
<polyline fill="none" stroke="black" points="299.25,-288.5 299.25,-315.25"/>
<text text-anchor="middle" x="323" y="-294.15" font-family="Times,serif" font-size="18.00">(nil)</text>
</g>
<!-- 0x5030000001f0&#45;&gt;0x503000000100 -->
<g id="edge1" class="edge">
<title>0x5030000001f0&#45;&gt;0x503000000100</title>
<path fill="none" stroke="black" d="M317.27,-432.12C310.84,-423.35 304.13,-414.17 297.55,-405.19"/>
<polygon fill="black" stroke="black" points="300.38,-403.14 291.65,-397.14 294.74,-407.28 300.38,-403.14"/>
</g>
<!-- 0x5030000001c0 -->
<g id="node6" class="node">
<title>0x5030000001c0</title>
<path fill="orange" stroke="black" d="M400.25,-288.5C400.25,-288.5 565.75,-288.5 565.75,-288.5 571.75,-288.5 577.75,-294.5 577.75,-300.5 577.75,-300.5 577.75,-383.5 577.75,-383.5 577.75,-389.5 571.75,-395.5 565.75,-395.5 565.75,-395.5 400.25,-395.5 400.25,-395.5 394.25,-395.5 388.25,-389.5 388.25,-383.5 388.25,-383.5 388.25,-300.5 388.25,-300.5 388.25,-294.5 394.25,-288.5 400.25,-288.5"/>
<text text-anchor="middle" x="483" y="-374.4" font-family="Times,serif" font-size="18.00">Nodetype: Function</text>
<polyline fill="none" stroke="black" points="388.25,-368.75 577.75,-368.75"/>
<text text-anchor="middle" x="483" y="-347.65" font-family="Times,serif" font-size="18.00">TypeFunction: ln</text>
<polyline fill="none" stroke="black" points="388.25,-342 577.75,-342"/>
<text text-anchor="middle" x="483" y="-320.9" font-family="Times,serif" font-size="18.00">0x5030000001c0</text>
<polyline fill="none" stroke="black" points="388.25,-315.25 577.75,-315.25"/>
<text text-anchor="middle" x="459.25" y="-294.15" font-family="Times,serif" font-size="18.00">0x503000000190</text>
<polyline fill="none" stroke="black" points="530.25,-288.5 530.25,-315.25"/>
<text text-anchor="middle" x="554" y="-294.15" font-family="Times,serif" font-size="18.00">(nil)</text>
</g>
<!-- 0x5030000001f0&#45;&gt;0x5030000001c0 -->
<g id="edge5" class="edge">
<title>0x5030000001f0&#45;&gt;0x5030000001c0</title>
<path fill="none" stroke="black" d="M403.29,-432.12C411.39,-423.07 419.87,-413.59 428.14,-404.34"/>
<polygon fill="black" stroke="black" points="430.6,-406.83 434.66,-397.05 425.39,-402.17 430.6,-406.83"/>
</g>
<!-- 0x5030000000d0 -->
<g id="node3" class="node">
<title>0x5030000000d0</title>
<path fill="crimson" stroke="black" d="M75.38,-144.5C75.38,-144.5 334.62,-144.5 334.62,-144.5 340.62,-144.5 346.62,-150.5 346.62,-156.5 346.62,-156.5 346.62,-239.5 346.62,-239.5 346.62,-245.5 340.62,-251.5 334.62,-251.5 334.62,-251.5 75.38,-251.5 75.38,-251.5 69.38,-251.5 63.38,-245.5 63.38,-239.5 63.38,-239.5 63.38,-156.5 63.38,-156.5 63.38,-150.5 69.38,-144.5 75.38,-144.5"/>
<text text-anchor="middle" x="205" y="-230.4" font-family="Times,serif" font-size="18.00">Nodetype: Operation</text>
<polyline fill="none" stroke="black" points="63.38,-224.75 346.62,-224.75"/>
<text text-anchor="middle" x="205" y="-203.65" font-family="Times,serif" font-size="18.00">TypeOperation: *</text>
<polyline fill="none" stroke="black" points="63.38,-198 346.62,-198"/>
<text text-anchor="middle" x="205" y="-176.9" font-family="Times,serif" font-size="18.00">0x5030000000d0</text>
<polyline fill="none" stroke="black" points="63.38,-171.25 346.62,-171.25"/>
<text text-anchor="middle" x="134.38" y="-150.15" font-family="Times,serif" font-size="18.00">0x503000000070</text>
<polyline fill="none" stroke="black" points="205.38,-144.5 205.38,-171.25"/>
<text text-anchor="middle" x="276" y="-150.15" font-family="Times,serif" font-size="18.00">0x5030000000a0</text>
</g>
<!-- 0x503000000100&#45;&gt;0x5030000000d0 -->
<g id="edge2" class="edge">
<title>0x503000000100&#45;&gt;0x5030000000d0</title>
<path fill="none" stroke="black" d="M234.5,-288.12C231.75,-279.81 228.88,-271.14 226.05,-262.61"/>
<polygon fill="black" stroke="black" points="229.46,-261.75 222.99,-253.36 222.81,-263.95 229.46,-261.75"/>
</g>
<!-- 0x503000000070 -->
<g id="node4" class="node">
<title>0x503000000070</title>
<path fill="lightskyblue" stroke="black" d="M12,-0.5C12,-0.5 130,-0.5 130,-0.5 136,-0.5 142,-6.5 142,-12.5 142,-12.5 142,-95.5 142,-95.5 142,-101.5 136,-107.5 130,-107.5 130,-107.5 12,-107.5 12,-107.5 6,-107.5 0,-101.5 0,-95.5 0,-95.5 0,-12.5 0,-12.5 0,-6.5 6,-0.5 12,-0.5"/>
<text text-anchor="middle" x="71" y="-86.4" font-family="Times,serif" font-size="18.00">Nodetype: Num</text>
<polyline fill="none" stroke="black" points="0,-80.75 142,-80.75"/>
<text text-anchor="middle" x="71" y="-59.65" font-family="Times,serif" font-size="18.00">Num: 2.00</text>
<polyline fill="none" stroke="black" points="0,-54 142,-54"/>
<text text-anchor="middle" x="71" y="-32.9" font-family="Times,serif" font-size="18.00">0x503000000070</text>
<polyline fill="none" stroke="black" points="0,-27.25 142,-27.25"/>
<text text-anchor="middle" x="35.25" y="-6.15" font-family="Times,serif" font-size="18.00">(nil)</text>
<polyline fill="none" stroke="black" points="70.5,-0.5 70.5,-27.25"/>
<text text-anchor="middle" x="106.25" y="-6.15" font-family="Times,serif" font-size="18.00">(nil)</text>
</g>
<!-- 0x5030000000d0&#45;&gt;0x503000000070 -->
<g id="edge3" class="edge">
<title>0x5030000000d0&#45;&gt;0x503000000070</title>
<path fill="none" stroke="black" d="M155.1,-144.12C146.47,-134.98 137.43,-125.4 128.61,-116.05"/>
<polygon fill="black" stroke="black" points="131.39,-113.89 121.98,-109.02 126.29,-118.7 131.39,-113.89"/>
</g>
<!-- 0x5030000000a0 -->
<g id="node5" class="node">
<title>0x5030000000a0</title>
<path fill="green" stroke="black" d="M172.5,-0.5C172.5,-0.5 305.5,-0.5 305.5,-0.5 311.5,-0.5 317.5,-6.5 317.5,-12.5 317.5,-12.5 317.5,-95.5 317.5,-95.5 317.5,-101.5 311.5,-107.5 305.5,-107.5 305.5,-107.5 172.5,-107.5 172.5,-107.5 166.5,-107.5 160.5,-101.5 160.5,-95.5 160.5,-95.5 160.5,-12.5 160.5,-12.5 160.5,-6.5 166.5,-0.5 172.5,-0.5"/>
<text text-anchor="middle" x="239" y="-86.4" font-family="Times,serif" font-size="18.00">Nodetype: Variable</text>
<polyline fill="none" stroke="black" points="160.5,-80.75 317.5,-80.75"/>
<text text-anchor="middle" x="239" y="-59.65" font-family="Times,serif" font-size="18.00">Var: x</text>
<polyline fill="none" stroke="black" points="160.5,-54 317.5,-54"/>
<text text-anchor="middle" x="239" y="-32.9" font-family="Times,serif" font-size="18.00">0x5030000000a0</text>
<polyline fill="none" stroke="black" points="160.5,-27.25 317.5,-27.25"/>
<text text-anchor="middle" x="199.75" y="-6.15" font-family="Times,serif" font-size="18.00">(nil)</text>
<polyline fill="none" stroke="black" points="239,-0.5 239,-27.25"/>
<text text-anchor="middle" x="278.25" y="-6.15" font-family="Times,serif" font-size="18.00">(nil)</text>
</g>
<!-- 0x5030000000d0&#45;&gt;0x5030000000a0 -->
<g id="edge4" class="edge">
<title>0x5030000000d0&#45;&gt;0x5030000000a0</title>
<path fill="none" stroke="black" d="M217.66,-144.12C219.63,-135.9 221.68,-127.33 223.7,-118.89"/>
<polygon fill="black" stroke="black" points="227.05,-119.93 225.98,-109.39 220.24,-118.3 227.05,-119.93"/>
</g>
<!-- 0x503000000190 -->
<g id="node7" class="node">
<title>0x503000000190</title>
<path fill="crimson" stroke="black" d="M377,-144.5C377,-144.5 637,-144.5 637,-144.5 643,-144.5 649,-150.5 649,-156.5 649,-156.5 649,-239.5 649,-239.5 649,-245.5 643,-251.5 637,-251.5 637,-251.5 377,-251.5 377,-251.5 371,-251.5 365,-245.5 365,-239.5 365,-239.5 365,-156.5 365,-156.5 365,-150.5 371,-144.5 377,-144.5"/>
<text text-anchor="middle" x="507" y="-230.4" font-family="Times,serif" font-size="18.00">Nodetype: Operation</text>
<polyline fill="none" stroke="black" points="365,-224.75 649,-224.75"/>
<text text-anchor="middle" x="507" y="-203.65" font-family="Times,serif" font-size="18.00">TypeOperation: +</text>
<polyline fill="none" stroke="black" points="365,-198 649,-198"/>
<text text-anchor="middle" x="507" y="-176.9" font-family="Times,serif" font-size="18.00">0x503000000190</text>
<polyline fill="none" stroke="black" points="365,-171.25 649,-171.25"/>
<text text-anchor="middle" x="436" y="-150.15" font-family="Times,serif" font-size="18.00">0x503000000130</text>
<polyline fill="none" stroke="black" points="507,-144.5 507,-171.25"/>
<text text-anchor="middle" x="578" y="-150.15" font-family="Times,serif" font-size="18.00">0x503000000160</text>
</g>
<!-- 0x5030000001c0&#45;&gt;0x503000000190 -->
<g id="edge6" class="edge">
<title>0x5030000001c0&#45;&gt;0x503000000190</title>
<path fill="none" stroke="black" d="M491.94,-288.12C493.31,-279.99 494.74,-271.52 496.15,-263.18"/>
<polygon fill="black" stroke="black" points="499.59,-263.86 497.8,-253.41 492.69,-262.69 499.59,-263.86"/>
</g>
<!-- 0x503000000130 -->
<g id="node8" class="node">
<title>0x503000000130</title>
<path fill="lightskyblue" stroke="black" d="M415,-0.5C415,-0.5 533,-0.5 533,-0.5 539,-0.5 545,-6.5 545,-12.5 545,-12.5 545,-95.5 545,-95.5 545,-101.5 539,-107.5 533,-107.5 533,-107.5 415,-107.5 415,-107.5 409,-107.5 403,-101.5 403,-95.5 403,-95.5 403,-12.5 403,-12.5 403,-6.5 409,-0.5 415,-0.5"/>
<text text-anchor="middle" x="474" y="-86.4" font-family="Times,serif" font-size="18.00">Nodetype: Num</text>
<polyline fill="none" stroke="black" points="403,-80.75 545,-80.75"/>
<text text-anchor="middle" x="474" y="-59.65" font-family="Times,serif" font-size="18.00">Num: 1.00</text>
<polyline fill="none" stroke="black" points="403,-54 545,-54"/>
<text text-anchor="middle" x="474" y="-32.9" font-family="Times,serif" font-size="18.00">0x503000000130</text>
<polyline fill="none" stroke="black" points="403,-27.25 545,-27.25"/>
<text text-anchor="middle" x="438.25" y="-6.15" font-family="Times,serif" font-size="18.00">(nil)</text>
<polyline fill="none" stroke="black" points="473.5,-0.5 473.5,-27.25"/>
<text text-anchor="middle" x="509.25" y="-6.15" font-family="Times,serif" font-size="18.00">(nil)</text>
</g>
<!-- 0x503000000190&#45;&gt;0x503000000130 -->
<g id="edge7" class="edge">
<title>0x503000000190&#45;&gt;0x503000000130</title>
<path fill="none" stroke="black" d="M494.71,-144.12C492.8,-135.9 490.81,-127.33 488.85,-118.89"/>
<polygon fill="black" stroke="black" points="492.31,-118.34 486.64,-109.39 485.5,-119.93 492.31,-118.34"/>
</g>
<!-- 0x503000000160 -->
<g id="node9" class="node">
<title>0x503000000160</title>
<path fill="green" stroke="black" d="M575.5,-0.5C575.5,-0.5 708.5,-0.5 708.5,-0.5 714.5,-0.5 720.5,-6.5 720.5,-12.5 720.5,-12.5 720.5,-95.5 720.5,-95.5 720.5,-101.5 714.5,-107.5 708.5,-107.5 708.5,-107.5 575.5,-107.5 575.5,-107.5 569.5,-107.5 563.5,-101.5 563.5,-95.5 563.5,-95.5 563.5,-12.5 563.5,-12.5 563.5,-6.5 569.5,-0.5 575.5,-0.5"/>
<text text-anchor="middle" x="642" y="-86.4" font-family="Times,serif" font-size="18.00">Nodetype: Variable</text>
<polyline fill="none" stroke="black" points="563.5,-80.75 720.5,-80.75"/>
<text text-anchor="middle" x="642" y="-59.65" font-family="Times,serif" font-size="18.00">Var: x</text>
<polyline fill="none" stroke="black" points="563.5,-54 720.5,-54"/>
<text text-anchor="middle" x="642" y="-32.9" font-family="Times,serif" font-size="18.00">0x503000000160</text>
<polyline fill="none" stroke="black" points="563.5,-27.25 720.5,-27.25"/>
<text text-anchor="middle" x="602.75" y="-6.15" font-family="Times,serif" font-size="18.00">(nil)</text>
<polyline fill="none" stroke="black" points="642,-0.5 642,-27.25"/>
<text text-anchor="middle" x="681.25" y="-6.15" font-family="Times,serif" font-size="18.00">(nil)</text>
</g>
<!-- 0x503000000190&#45;&gt;0x503000000160 -->
<g id="edge8" class="edge">
<title>0x503000000190&#45;&gt;0x503000000160</title>
<path fill="none" stroke="black" d="M557.27,-144.12C565.97,-134.98 575.07,-125.4 583.96,-116.05"/>
<polygon fill="black" stroke="black" points="586.29,-118.68 590.65,-109.02 581.22,-113.85 586.29,-118.68"/>
</g>
</g>
</svg>
