<?xml version="1.0" encoding="UTF-8" standalone="no"?>
<!DOCTYPE svg PUBLIC "-//W3C//DTD SVG 1.1//EN"
 "http://www.w3.org/Graphics/SVG/1.1/DTD/svg11.dtd">
<!-- Generated by graphviz version 8.1.0 (20230707.0739)
 -->
<!-- Pages: 1 -->
<svg width="342pt" height="278pt"
 viewBox="0.00 0.00 341.75 278.00" xmlns="http://www.w3.org/2000/svg" xmlns:xlink="http://www.w3.org/1999/xlink">
<g id="graph0" class="graph" transform="scale(1 1) rotate(0) translate(4 274)">
<polygon fill="white" stroke="none" points="-4,4 -4,-274 337.75,-274 337.75,4 -4,4"/>
<!-- 0x603000000040 -->
<g id="node1" class="node">
<title>0x603000000040</title>
<path fill="orange" stroke="black" d="M37.25,-153.5C37.25,-153.5 296.5,-153.5 296.5,-153.5 302.5,-153.5 308.5,-159.5 308.5,-165.5 308.5,-165.5 308.5,-257.5 308.5,-257.5 308.5,-263.5 302.5,-269.5 296.5,-269.5 296.5,-269.5 37.25,-269.5 37.25,-269.5 31.25,-269.5 25.25,-263.5 25.25,-257.5 25.25,-257.5 25.25,-165.5 25.25,-165.5 25.25,-159.5 31.25,-153.5 37.25,-153.5"/>
<text text-anchor="middle" x="166.88" y="-248.4" font-family="Times,serif" font-size="18.00">Nodetype: Function</text>
<polyline fill="none" stroke="black" points="25.25,-240.5 308.5,-240.5"/>
<text text-anchor="middle" x="166.88" y="-219.4" font-family="Times,serif" font-size="18.00">TypeFunction: log</text>
<polyline fill="none" stroke="black" points="25.25,-211.5 308.5,-211.5"/>
<text text-anchor="middle" x="166.88" y="-190.4" font-family="Times,serif" font-size="18.00">0x603000000040</text>
<polyline fill="none" stroke="black" points="25.25,-182.5 308.5,-182.5"/>
<text text-anchor="middle" x="96.25" y="-161.4" font-family="Times,serif" font-size="18.00">0x603000000070</text>
<polyline fill="none" stroke="black" points="167.25,-153.5 167.25,-182.5"/>
<text text-anchor="middle" x="237.88" y="-161.4" font-family="Times,serif" font-size="18.00">0x6030000000a0</text>
</g>
<!-- 0x603000000070 -->
<g id="node2" class="node">
<title>0x603000000070</title>
<path fill="green" stroke="black" d="M12,-0.5C12,-0.5 145.75,-0.5 145.75,-0.5 151.75,-0.5 157.75,-6.5 157.75,-12.5 157.75,-12.5 157.75,-104.5 157.75,-104.5 157.75,-110.5 151.75,-116.5 145.75,-116.5 145.75,-116.5 12,-116.5 12,-116.5 6,-116.5 0,-110.5 0,-104.5 0,-104.5 0,-12.5 0,-12.5 0,-6.5 6,-0.5 12,-0.5"/>
<text text-anchor="middle" x="78.88" y="-95.4" font-family="Times,serif" font-size="18.00">Nodetype: Variable</text>
<polyline fill="none" stroke="black" points="0,-87.5 157.75,-87.5"/>
<text text-anchor="middle" x="78.88" y="-66.4" font-family="Times,serif" font-size="18.00">Var: x</text>
<polyline fill="none" stroke="black" points="0,-58.5 157.75,-58.5"/>
<text text-anchor="middle" x="78.88" y="-37.4" font-family="Times,serif" font-size="18.00">0x603000000070</text>
<polyline fill="none" stroke="black" points="0,-29.5 157.75,-29.5"/>
<text text-anchor="middle" x="39.25" y="-8.4" font-family="Times,serif" font-size="18.00">(nil)</text>
<polyline fill="none" stroke="black" points="78.5,-0.5 78.5,-29.5"/>
<text text-anchor="middle" x="117.75" y="-8.4" font-family="Times,serif" font-size="18.00">(nil)</text>
</g>
<!-- 0x603000000040&#45;&gt;0x603000000070 -->
<g id="edge1" class="edge">
<title>0x603000000040&#45;&gt;0x603000000070</title>
<path fill="none" stroke="black" d="M133.86,-153.84C128.52,-144.68 122.95,-135.12 117.49,-125.75"/>
<polygon fill="black" stroke="black" points="120.14,-124.35 112.08,-117.47 114.09,-127.88 120.14,-124.35"/>
</g>
<!-- 0x6030000000a0 -->
<g id="node3" class="node">
<title>0x6030000000a0</title>
<path fill="green" stroke="black" d="M188,-0.5C188,-0.5 321.75,-0.5 321.75,-0.5 327.75,-0.5 333.75,-6.5 333.75,-12.5 333.75,-12.5 333.75,-104.5 333.75,-104.5 333.75,-110.5 327.75,-116.5 321.75,-116.5 321.75,-116.5 188,-116.5 188,-116.5 182,-116.5 176,-110.5 176,-104.5 176,-104.5 176,-12.5 176,-12.5 176,-6.5 182,-0.5 188,-0.5"/>
<text text-anchor="middle" x="254.88" y="-95.4" font-family="Times,serif" font-size="18.00">Nodetype: Variable</text>
<polyline fill="none" stroke="black" points="176,-87.5 333.75,-87.5"/>
<text text-anchor="middle" x="254.88" y="-66.4" font-family="Times,serif" font-size="18.00">Var: x</text>
<polyline fill="none" stroke="black" points="176,-58.5 333.75,-58.5"/>
<text text-anchor="middle" x="254.88" y="-37.4" font-family="Times,serif" font-size="18.00">0x6030000000a0</text>
<polyline fill="none" stroke="black" points="176,-29.5 333.75,-29.5"/>
<text text-anchor="middle" x="215.25" y="-8.4" font-family="Times,serif" font-size="18.00">(nil)</text>
<polyline fill="none" stroke="black" points="254.5,-0.5 254.5,-29.5"/>
<text text-anchor="middle" x="293.75" y="-8.4" font-family="Times,serif" font-size="18.00">(nil)</text>
</g>
<!-- 0x603000000040&#45;&gt;0x6030000000a0 -->
<g id="edge2" class="edge">
<title>0x603000000040&#45;&gt;0x6030000000a0</title>
<path fill="none" stroke="black" d="M199.89,-153.84C205.23,-144.68 210.8,-135.12 216.26,-125.75"/>
<polygon fill="black" stroke="black" points="219.66,-127.88 221.67,-117.47 213.61,-124.35 219.66,-127.88"/>
</g>
</g>
</svg>
