<?xml version="1.0" encoding="UTF-8" standalone="no"?>
<!DOCTYPE svg PUBLIC "-//W3C//DTD SVG 1.1//EN"
 "http://www.w3.org/Graphics/SVG/1.1/DTD/svg11.dtd">
<!-- Generated by graphviz version 10.0.1 (0)
 -->
<!-- Pages: 1 -->
<svg width="1143pt" height="572pt"
 viewBox="0.00 0.00 1142.62 572.00" xmlns="http://www.w3.org/2000/svg" xmlns:xlink="http://www.w3.org/1999/xlink">
<g id="graph0" class="graph" transform="scale(1 1) rotate(0) translate(4 568)">
<polygon fill="white" stroke="none" points="-4,4 -4,-568 1138.62,-568 1138.62,4 -4,4"/>
<!-- 0x503000000040 -->
<g id="node1" class="node">
<title>0x503000000040</title>
<path fill="orange" stroke="black" d="M552,-450.5C552,-450.5 811.25,-450.5 811.25,-450.5 817.25,-450.5 823.25,-456.5 823.25,-462.5 823.25,-462.5 823.25,-551.5 823.25,-551.5 823.25,-557.5 817.25,-563.5 811.25,-563.5 811.25,-563.5 552,-563.5 552,-563.5 546,-563.5 540,-557.5 540,-551.5 540,-551.5 540,-462.5 540,-462.5 540,-456.5 546,-450.5 552,-450.5"/>
<text text-anchor="middle" x="681.62" y="-542.4" font-family="Times,serif" font-size="18.00">Nodetype: Function</text>
<polyline fill="none" stroke="black" points="540,-535.25 823.25,-535.25"/>
<text text-anchor="middle" x="681.62" y="-514.15" font-family="Times,serif" font-size="18.00">TypeFunction: log</text>
<polyline fill="none" stroke="black" points="540,-507 823.25,-507"/>
<text text-anchor="middle" x="681.62" y="-485.9" font-family="Times,serif" font-size="18.00">0x503000000040</text>
<polyline fill="none" stroke="black" points="540,-478.75 823.25,-478.75"/>
<text text-anchor="middle" x="611" y="-457.65" font-family="Times,serif" font-size="18.00">0x503000000070</text>
<polyline fill="none" stroke="black" points="682,-450.5 682,-478.75"/>
<text text-anchor="middle" x="752.62" y="-457.65" font-family="Times,serif" font-size="18.00">0x5030000001c0</text>
</g>
<!-- 0x503000000070 -->
<g id="node2" class="node">
<title>0x503000000070</title>
<path fill="crimson" stroke="black" d="M401.38,-300.5C401.38,-300.5 659.88,-300.5 659.88,-300.5 665.88,-300.5 671.88,-306.5 671.88,-312.5 671.88,-312.5 671.88,-401.5 671.88,-401.5 671.88,-407.5 665.88,-413.5 659.88,-413.5 659.88,-413.5 401.38,-413.5 401.38,-413.5 395.38,-413.5 389.38,-407.5 389.38,-401.5 389.38,-401.5 389.38,-312.5 389.38,-312.5 389.38,-306.5 395.38,-300.5 401.38,-300.5"/>
<text text-anchor="middle" x="530.62" y="-392.4" font-family="Times,serif" font-size="18.00">Nodetype: Operation</text>
<polyline fill="none" stroke="black" points="389.38,-385.25 671.88,-385.25"/>
<text text-anchor="middle" x="530.62" y="-364.15" font-family="Times,serif" font-size="18.00">TypeOperation: &#45;</text>
<polyline fill="none" stroke="black" points="389.38,-357 671.88,-357"/>
<text text-anchor="middle" x="530.62" y="-335.9" font-family="Times,serif" font-size="18.00">0x503000000070</text>
<polyline fill="none" stroke="black" points="389.38,-328.75 671.88,-328.75"/>
<text text-anchor="middle" x="459.62" y="-307.65" font-family="Times,serif" font-size="18.00">0x5030000000a0</text>
<polyline fill="none" stroke="black" points="529.88,-300.5 529.88,-328.75"/>
<text text-anchor="middle" x="600.88" y="-307.65" font-family="Times,serif" font-size="18.00">0x503000000130</text>
</g>
<!-- 0x503000000040&#45;&gt;0x503000000070 -->
<g id="edge1" class="edge">
<title>0x503000000040&#45;&gt;0x503000000070</title>
<path fill="none" stroke="black" d="M624.54,-450.05C615.08,-440.77 605.21,-431.1 595.57,-421.65"/>
<polygon fill="black" stroke="black" points="598.21,-419.35 588.62,-414.85 593.31,-424.34 598.21,-419.35"/>
</g>
<!-- 0x5030000001c0 -->
<g id="node9" class="node">
<title>0x5030000001c0</title>
<path fill="crimson" stroke="black" d="M703.75,-300.5C703.75,-300.5 961.5,-300.5 961.5,-300.5 967.5,-300.5 973.5,-306.5 973.5,-312.5 973.5,-312.5 973.5,-401.5 973.5,-401.5 973.5,-407.5 967.5,-413.5 961.5,-413.5 961.5,-413.5 703.75,-413.5 703.75,-413.5 697.75,-413.5 691.75,-407.5 691.75,-401.5 691.75,-401.5 691.75,-312.5 691.75,-312.5 691.75,-306.5 697.75,-300.5 703.75,-300.5"/>
<text text-anchor="middle" x="832.62" y="-392.4" font-family="Times,serif" font-size="18.00">Nodetype: Operation</text>
<polyline fill="none" stroke="black" points="691.75,-385.25 973.5,-385.25"/>
<text text-anchor="middle" x="832.62" y="-364.15" font-family="Times,serif" font-size="18.00">TypeOperation: +</text>
<polyline fill="none" stroke="black" points="691.75,-357 973.5,-357"/>
<text text-anchor="middle" x="832.62" y="-335.9" font-family="Times,serif" font-size="18.00">0x5030000001c0</text>
<polyline fill="none" stroke="black" points="691.75,-328.75 973.5,-328.75"/>
<text text-anchor="middle" x="761.62" y="-307.65" font-family="Times,serif" font-size="18.00">0x5030000001f0</text>
<polyline fill="none" stroke="black" points="831.5,-300.5 831.5,-328.75"/>
<text text-anchor="middle" x="902.5" y="-307.65" font-family="Times,serif" font-size="18.00">0x503000000280</text>
</g>
<!-- 0x503000000040&#45;&gt;0x5030000001c0 -->
<g id="edge8" class="edge">
<title>0x503000000040&#45;&gt;0x5030000001c0</title>
<path fill="none" stroke="black" d="M738.71,-450.05C748.17,-440.77 758.04,-431.1 767.68,-421.65"/>
<polygon fill="black" stroke="black" points="769.94,-424.34 774.63,-414.85 765.04,-419.35 769.94,-424.34"/>
</g>
<!-- 0x5030000000a0 -->
<g id="node3" class="node">
<title>0x5030000000a0</title>
<path fill="crimson" stroke="black" d="M98.62,-150.5C98.62,-150.5 358.62,-150.5 358.62,-150.5 364.62,-150.5 370.62,-156.5 370.62,-162.5 370.62,-162.5 370.62,-251.5 370.62,-251.5 370.62,-257.5 364.62,-263.5 358.62,-263.5 358.62,-263.5 98.62,-263.5 98.62,-263.5 92.62,-263.5 86.62,-257.5 86.62,-251.5 86.62,-251.5 86.62,-162.5 86.62,-162.5 86.62,-156.5 92.62,-150.5 98.62,-150.5"/>
<text text-anchor="middle" x="228.62" y="-242.4" font-family="Times,serif" font-size="18.00">Nodetype: Operation</text>
<polyline fill="none" stroke="black" points="86.62,-235.25 370.62,-235.25"/>
<text text-anchor="middle" x="228.62" y="-214.15" font-family="Times,serif" font-size="18.00">TypeOperation: ^</text>
<polyline fill="none" stroke="black" points="86.62,-207 370.62,-207"/>
<text text-anchor="middle" x="228.62" y="-185.9" font-family="Times,serif" font-size="18.00">0x5030000000a0</text>
<polyline fill="none" stroke="black" points="86.62,-178.75 370.62,-178.75"/>
<text text-anchor="middle" x="157.62" y="-157.65" font-family="Times,serif" font-size="18.00">0x5030000000d0</text>
<polyline fill="none" stroke="black" points="228.62,-150.5 228.62,-178.75"/>
<text text-anchor="middle" x="299.62" y="-157.65" font-family="Times,serif" font-size="18.00">0x503000000100</text>
</g>
<!-- 0x503000000070&#45;&gt;0x5030000000a0 -->
<g id="edge2" class="edge">
<title>0x503000000070&#45;&gt;0x5030000000a0</title>
<path fill="none" stroke="black" d="M416.45,-300.05C395.71,-289.88 373.98,-279.23 352.96,-268.93"/>
<polygon fill="black" stroke="black" points="354.59,-265.83 344.07,-264.57 351.51,-272.12 354.59,-265.83"/>
</g>
<!-- 0x503000000130 -->
<g id="node6" class="node">
<title>0x503000000130</title>
<path fill="crimson" stroke="black" d="M400.62,-150.5C400.62,-150.5 660.62,-150.5 660.62,-150.5 666.62,-150.5 672.62,-156.5 672.62,-162.5 672.62,-162.5 672.62,-251.5 672.62,-251.5 672.62,-257.5 666.62,-263.5 660.62,-263.5 660.62,-263.5 400.62,-263.5 400.62,-263.5 394.62,-263.5 388.62,-257.5 388.62,-251.5 388.62,-251.5 388.62,-162.5 388.62,-162.5 388.62,-156.5 394.62,-150.5 400.62,-150.5"/>
<text text-anchor="middle" x="530.62" y="-242.4" font-family="Times,serif" font-size="18.00">Nodetype: Operation</text>
<polyline fill="none" stroke="black" points="388.62,-235.25 672.62,-235.25"/>
<text text-anchor="middle" x="530.62" y="-214.15" font-family="Times,serif" font-size="18.00">TypeOperation: *</text>
<polyline fill="none" stroke="black" points="388.62,-207 672.62,-207"/>
<text text-anchor="middle" x="530.62" y="-185.9" font-family="Times,serif" font-size="18.00">0x503000000130</text>
<polyline fill="none" stroke="black" points="388.62,-178.75 672.62,-178.75"/>
<text text-anchor="middle" x="459.62" y="-157.65" font-family="Times,serif" font-size="18.00">0x503000000160</text>
<polyline fill="none" stroke="black" points="530.62,-150.5 530.62,-178.75"/>
<text text-anchor="middle" x="601.62" y="-157.65" font-family="Times,serif" font-size="18.00">0x503000000190</text>
</g>
<!-- 0x503000000070&#45;&gt;0x503000000130 -->
<g id="edge5" class="edge">
<title>0x503000000070&#45;&gt;0x503000000130</title>
<path fill="none" stroke="black" d="M530.62,-300.05C530.62,-291.83 530.62,-283.3 530.62,-274.89"/>
<polygon fill="black" stroke="black" points="534.13,-275.05 530.63,-265.05 527.13,-275.05 534.13,-275.05"/>
</g>
<!-- 0x5030000000d0 -->
<g id="node4" class="node">
<title>0x5030000000d0</title>
<path fill="green" stroke="black" d="M12,-0.5C12,-0.5 141.25,-0.5 141.25,-0.5 147.25,-0.5 153.25,-6.5 153.25,-12.5 153.25,-12.5 153.25,-101.5 153.25,-101.5 153.25,-107.5 147.25,-113.5 141.25,-113.5 141.25,-113.5 12,-113.5 12,-113.5 6,-113.5 0,-107.5 0,-101.5 0,-101.5 0,-12.5 0,-12.5 0,-6.5 6,-0.5 12,-0.5"/>
<text text-anchor="middle" x="76.62" y="-92.4" font-family="Times,serif" font-size="18.00">Nodetype: Variable</text>
<polyline fill="none" stroke="black" points="0,-85.25 153.25,-85.25"/>
<text text-anchor="middle" x="76.62" y="-64.15" font-family="Times,serif" font-size="18.00">Var: x</text>
<polyline fill="none" stroke="black" points="0,-57 153.25,-57"/>
<text text-anchor="middle" x="76.62" y="-35.9" font-family="Times,serif" font-size="18.00">0x5030000000d0</text>
<polyline fill="none" stroke="black" points="0,-28.75 153.25,-28.75"/>
<text text-anchor="middle" x="38" y="-7.65" font-family="Times,serif" font-size="18.00">(nil)</text>
<polyline fill="none" stroke="black" points="76,-0.5 76,-28.75"/>
<text text-anchor="middle" x="114.5" y="-7.65" font-family="Times,serif" font-size="18.00">(nil)</text>
</g>
<!-- 0x5030000000a0&#45;&gt;0x5030000000d0 -->
<g id="edge3" class="edge">
<title>0x5030000000a0&#45;&gt;0x5030000000d0</title>
<path fill="none" stroke="black" d="M171.16,-150.05C161.64,-140.77 151.7,-131.1 142,-121.65"/>
<polygon fill="black" stroke="black" points="144.61,-119.31 135,-114.84 139.73,-124.33 144.61,-119.31"/>
</g>
<!-- 0x503000000100 -->
<g id="node5" class="node">
<title>0x503000000100</title>
<path fill="lightskyblue" stroke="black" d="M183.62,-0.5C183.62,-0.5 301.62,-0.5 301.62,-0.5 307.62,-0.5 313.62,-6.5 313.62,-12.5 313.62,-12.5 313.62,-101.5 313.62,-101.5 313.62,-107.5 307.62,-113.5 301.62,-113.5 301.62,-113.5 183.62,-113.5 183.62,-113.5 177.62,-113.5 171.62,-107.5 171.62,-101.5 171.62,-101.5 171.62,-12.5 171.62,-12.5 171.62,-6.5 177.62,-0.5 183.62,-0.5"/>
<text text-anchor="middle" x="242.62" y="-92.4" font-family="Times,serif" font-size="18.00">Nodetype: Num</text>
<polyline fill="none" stroke="black" points="171.62,-85.25 313.62,-85.25"/>
<text text-anchor="middle" x="242.62" y="-64.15" font-family="Times,serif" font-size="18.00">Num: 3.00</text>
<polyline fill="none" stroke="black" points="171.62,-57 313.62,-57"/>
<text text-anchor="middle" x="242.62" y="-35.9" font-family="Times,serif" font-size="18.00">0x503000000100</text>
<polyline fill="none" stroke="black" points="171.62,-28.75 313.62,-28.75"/>
<text text-anchor="middle" x="207.12" y="-7.65" font-family="Times,serif" font-size="18.00">(nil)</text>
<polyline fill="none" stroke="black" points="242.62,-0.5 242.62,-28.75"/>
<text text-anchor="middle" x="278.12" y="-7.65" font-family="Times,serif" font-size="18.00">(nil)</text>
</g>
<!-- 0x5030000000a0&#45;&gt;0x503000000100 -->
<g id="edge4" class="edge">
<title>0x5030000000a0&#45;&gt;0x503000000100</title>
<path fill="none" stroke="black" d="M233.92,-150.05C234.7,-141.83 235.5,-133.3 236.3,-124.89"/>
<polygon fill="black" stroke="black" points="239.77,-125.33 237.23,-115.05 232.8,-124.67 239.77,-125.33"/>
</g>
<!-- 0x503000000160 -->
<g id="node7" class="node">
<title>0x503000000160</title>
<path fill="lightskyblue" stroke="black" d="M399.62,-0.5C399.62,-0.5 517.62,-0.5 517.62,-0.5 523.62,-0.5 529.62,-6.5 529.62,-12.5 529.62,-12.5 529.62,-101.5 529.62,-101.5 529.62,-107.5 523.62,-113.5 517.62,-113.5 517.62,-113.5 399.62,-113.5 399.62,-113.5 393.62,-113.5 387.62,-107.5 387.62,-101.5 387.62,-101.5 387.62,-12.5 387.62,-12.5 387.62,-6.5 393.62,-0.5 399.62,-0.5"/>
<text text-anchor="middle" x="458.62" y="-92.4" font-family="Times,serif" font-size="18.00">Nodetype: Num</text>
<polyline fill="none" stroke="black" points="387.62,-85.25 529.62,-85.25"/>
<text text-anchor="middle" x="458.62" y="-64.15" font-family="Times,serif" font-size="18.00">Num: 2.00</text>
<polyline fill="none" stroke="black" points="387.62,-57 529.62,-57"/>
<text text-anchor="middle" x="458.62" y="-35.9" font-family="Times,serif" font-size="18.00">0x503000000160</text>
<polyline fill="none" stroke="black" points="387.62,-28.75 529.62,-28.75"/>
<text text-anchor="middle" x="423.12" y="-7.65" font-family="Times,serif" font-size="18.00">(nil)</text>
<polyline fill="none" stroke="black" points="458.62,-0.5 458.62,-28.75"/>
<text text-anchor="middle" x="494.12" y="-7.65" font-family="Times,serif" font-size="18.00">(nil)</text>
</g>
<!-- 0x503000000130&#45;&gt;0x503000000160 -->
<g id="edge6" class="edge">
<title>0x503000000130&#45;&gt;0x503000000160</title>
<path fill="none" stroke="black" d="M503.4,-150.05C499.23,-141.46 494.88,-132.52 490.61,-123.74"/>
<polygon fill="black" stroke="black" points="493.83,-122.36 486.31,-114.9 487.53,-125.43 493.83,-122.36"/>
</g>
<!-- 0x503000000190 -->
<g id="node8" class="node">
<title>0x503000000190</title>
<path fill="green" stroke="black" d="M560,-0.5C560,-0.5 689.25,-0.5 689.25,-0.5 695.25,-0.5 701.25,-6.5 701.25,-12.5 701.25,-12.5 701.25,-101.5 701.25,-101.5 701.25,-107.5 695.25,-113.5 689.25,-113.5 689.25,-113.5 560,-113.5 560,-113.5 554,-113.5 548,-107.5 548,-101.5 548,-101.5 548,-12.5 548,-12.5 548,-6.5 554,-0.5 560,-0.5"/>
<text text-anchor="middle" x="624.62" y="-92.4" font-family="Times,serif" font-size="18.00">Nodetype: Variable</text>
<polyline fill="none" stroke="black" points="548,-85.25 701.25,-85.25"/>
<text text-anchor="middle" x="624.62" y="-64.15" font-family="Times,serif" font-size="18.00">Var: x</text>
<polyline fill="none" stroke="black" points="548,-57 701.25,-57"/>
<text text-anchor="middle" x="624.62" y="-35.9" font-family="Times,serif" font-size="18.00">0x503000000190</text>
<polyline fill="none" stroke="black" points="548,-28.75 701.25,-28.75"/>
<text text-anchor="middle" x="586" y="-7.65" font-family="Times,serif" font-size="18.00">(nil)</text>
<polyline fill="none" stroke="black" points="624,-0.5 624,-28.75"/>
<text text-anchor="middle" x="662.5" y="-7.65" font-family="Times,serif" font-size="18.00">(nil)</text>
</g>
<!-- 0x503000000130&#45;&gt;0x503000000190 -->
<g id="edge7" class="edge">
<title>0x503000000130&#45;&gt;0x503000000190</title>
<path fill="none" stroke="black" d="M566.16,-150.05C571.74,-141.27 577.54,-132.13 583.23,-123.17"/>
<polygon fill="black" stroke="black" points="586.13,-125.14 588.54,-114.82 580.22,-121.38 586.13,-125.14"/>
</g>
<!-- 0x5030000001f0 -->
<g id="node10" class="node">
<title>0x5030000001f0</title>
<path fill="crimson" stroke="black" d="M702.62,-150.5C702.62,-150.5 962.62,-150.5 962.62,-150.5 968.62,-150.5 974.62,-156.5 974.62,-162.5 974.62,-162.5 974.62,-251.5 974.62,-251.5 974.62,-257.5 968.62,-263.5 962.62,-263.5 962.62,-263.5 702.62,-263.5 702.62,-263.5 696.62,-263.5 690.62,-257.5 690.62,-251.5 690.62,-251.5 690.62,-162.5 690.62,-162.5 690.62,-156.5 696.62,-150.5 702.62,-150.5"/>
<text text-anchor="middle" x="832.62" y="-242.4" font-family="Times,serif" font-size="18.00">Nodetype: Operation</text>
<polyline fill="none" stroke="black" points="690.62,-235.25 974.62,-235.25"/>
<text text-anchor="middle" x="832.62" y="-214.15" font-family="Times,serif" font-size="18.00">TypeOperation: *</text>
<polyline fill="none" stroke="black" points="690.62,-207 974.62,-207"/>
<text text-anchor="middle" x="832.62" y="-185.9" font-family="Times,serif" font-size="18.00">0x5030000001f0</text>
<polyline fill="none" stroke="black" points="690.62,-178.75 974.62,-178.75"/>
<text text-anchor="middle" x="761.62" y="-157.65" font-family="Times,serif" font-size="18.00">0x503000000220</text>
<polyline fill="none" stroke="black" points="832.62,-150.5 832.62,-178.75"/>
<text text-anchor="middle" x="903.62" y="-157.65" font-family="Times,serif" font-size="18.00">0x503000000250</text>
</g>
<!-- 0x5030000001c0&#45;&gt;0x5030000001f0 -->
<g id="edge9" class="edge">
<title>0x5030000001c0&#45;&gt;0x5030000001f0</title>
<path fill="none" stroke="black" d="M832.62,-300.05C832.62,-291.83 832.62,-283.3 832.62,-274.89"/>
<polygon fill="black" stroke="black" points="836.13,-275.05 832.63,-265.05 829.13,-275.05 836.13,-275.05"/>
</g>
<!-- 0x503000000280 -->
<g id="node13" class="node">
<title>0x503000000280</title>
<path fill="lightskyblue" stroke="black" d="M1004.62,-150.5C1004.62,-150.5 1122.62,-150.5 1122.62,-150.5 1128.62,-150.5 1134.62,-156.5 1134.62,-162.5 1134.62,-162.5 1134.62,-251.5 1134.62,-251.5 1134.62,-257.5 1128.62,-263.5 1122.62,-263.5 1122.62,-263.5 1004.62,-263.5 1004.62,-263.5 998.62,-263.5 992.62,-257.5 992.62,-251.5 992.62,-251.5 992.62,-162.5 992.62,-162.5 992.62,-156.5 998.62,-150.5 1004.62,-150.5"/>
<text text-anchor="middle" x="1063.62" y="-242.4" font-family="Times,serif" font-size="18.00">Nodetype: Num</text>
<polyline fill="none" stroke="black" points="992.62,-235.25 1134.62,-235.25"/>
<text text-anchor="middle" x="1063.62" y="-214.15" font-family="Times,serif" font-size="18.00">Num: 2.00</text>
<polyline fill="none" stroke="black" points="992.62,-207 1134.62,-207"/>
<text text-anchor="middle" x="1063.62" y="-185.9" font-family="Times,serif" font-size="18.00">0x503000000280</text>
<polyline fill="none" stroke="black" points="992.62,-178.75 1134.62,-178.75"/>
<text text-anchor="middle" x="1028.12" y="-157.65" font-family="Times,serif" font-size="18.00">(nil)</text>
<polyline fill="none" stroke="black" points="1063.62,-150.5 1063.62,-178.75"/>
<text text-anchor="middle" x="1099.12" y="-157.65" font-family="Times,serif" font-size="18.00">(nil)</text>
</g>
<!-- 0x5030000001c0&#45;&gt;0x503000000280 -->
<g id="edge12" class="edge">
<title>0x5030000001c0&#45;&gt;0x503000000280</title>
<path fill="none" stroke="black" d="M926.24,-300.23C943.05,-289.91 960.45,-279.02 982.74,-264.51"/>
<polygon fill="black" stroke="black" points="984.53,-267.53 990.98,-259.13 980.7,-261.67 984.53,-267.53"/>
</g>
<!-- 0x503000000220 -->
<g id="node11" class="node">
<title>0x503000000220</title>
<path fill="lightskyblue" stroke="black" d="M759.62,-0.5C759.62,-0.5 877.62,-0.5 877.62,-0.5 883.62,-0.5 889.62,-6.5 889.62,-12.5 889.62,-12.5 889.62,-101.5 889.62,-101.5 889.62,-107.5 883.62,-113.5 877.62,-113.5 877.62,-113.5 759.62,-113.5 759.62,-113.5 753.62,-113.5 747.62,-107.5 747.62,-101.5 747.62,-101.5 747.62,-12.5 747.62,-12.5 747.62,-6.5 753.62,-0.5 759.62,-0.5"/>
<text text-anchor="middle" x="818.62" y="-92.4" font-family="Times,serif" font-size="18.00">Nodetype: Num</text>
<polyline fill="none" stroke="black" points="747.62,-85.25 889.62,-85.25"/>
<text text-anchor="middle" x="818.62" y="-64.15" font-family="Times,serif" font-size="18.00">Num: 5.00</text>
<polyline fill="none" stroke="black" points="747.62,-57 889.62,-57"/>
<text text-anchor="middle" x="818.62" y="-35.9" font-family="Times,serif" font-size="18.00">0x503000000220</text>
<polyline fill="none" stroke="black" points="747.62,-28.75 889.62,-28.75"/>
<text text-anchor="middle" x="783.12" y="-7.65" font-family="Times,serif" font-size="18.00">(nil)</text>
<polyline fill="none" stroke="black" points="818.62,-0.5 818.62,-28.75"/>
<text text-anchor="middle" x="854.12" y="-7.65" font-family="Times,serif" font-size="18.00">(nil)</text>
</g>
<!-- 0x5030000001f0&#45;&gt;0x503000000220 -->
<g id="edge10" class="edge">
<title>0x5030000001f0&#45;&gt;0x503000000220</title>
<path fill="none" stroke="black" d="M827.33,-150.05C826.55,-141.83 825.75,-133.3 824.95,-124.89"/>
<polygon fill="black" stroke="black" points="828.45,-124.67 824.02,-115.05 821.48,-125.33 828.45,-124.67"/>
</g>
<!-- 0x503000000250 -->
<g id="node12" class="node">
<title>0x503000000250</title>
<path fill="green" stroke="black" d="M920,-0.5C920,-0.5 1049.25,-0.5 1049.25,-0.5 1055.25,-0.5 1061.25,-6.5 1061.25,-12.5 1061.25,-12.5 1061.25,-101.5 1061.25,-101.5 1061.25,-107.5 1055.25,-113.5 1049.25,-113.5 1049.25,-113.5 920,-113.5 920,-113.5 914,-113.5 908,-107.5 908,-101.5 908,-101.5 908,-12.5 908,-12.5 908,-6.5 914,-0.5 920,-0.5"/>
<text text-anchor="middle" x="984.62" y="-92.4" font-family="Times,serif" font-size="18.00">Nodetype: Variable</text>
<polyline fill="none" stroke="black" points="908,-85.25 1061.25,-85.25"/>
<text text-anchor="middle" x="984.62" y="-64.15" font-family="Times,serif" font-size="18.00">Var: x</text>
<polyline fill="none" stroke="black" points="908,-57 1061.25,-57"/>
<text text-anchor="middle" x="984.62" y="-35.9" font-family="Times,serif" font-size="18.00">0x503000000250</text>
<polyline fill="none" stroke="black" points="908,-28.75 1061.25,-28.75"/>
<text text-anchor="middle" x="946" y="-7.65" font-family="Times,serif" font-size="18.00">(nil)</text>
<polyline fill="none" stroke="black" points="984,-0.5 984,-28.75"/>
<text text-anchor="middle" x="1022.5" y="-7.65" font-family="Times,serif" font-size="18.00">(nil)</text>
</g>
<!-- 0x5030000001f0&#45;&gt;0x503000000250 -->
<g id="edge11" class="edge">
<title>0x5030000001f0&#45;&gt;0x503000000250</title>
<path fill="none" stroke="black" d="M890.09,-150.05C899.61,-140.77 909.55,-131.1 919.25,-121.65"/>
<polygon fill="black" stroke="black" points="921.52,-124.33 926.25,-114.84 916.64,-119.31 921.52,-124.33"/>
</g>
</g>
</svg>
